<?xml version="1.0" encoding="utf-8"?>
<svg x="0in" y="0in" width="1.43701in" height="0.70275in" viewBox="0 0 175.682 50.598" xmlns="http://www.w3.org/2000/svg">
  <defs>
    <style id="bx-google-fonts">@import url(https://fonts.googleapis.com/css?family=Roboto:100,300,500,700,900,100italic,300italic,400,400italic,500italic,700italic,900italic);</style>
  </defs>
  <path d="M 2.84 -0.065 L 175.535 -0.065 L 175.535 50.535 L 2.84 50.535 Z M 128.702 44.945 C 127.648 44.945 126.794 45.799 126.794 46.853 C 126.794 47.907 127.648 48.761 128.702 48.761 C 129.755 48.761 130.61 47.907 130.61 46.853 C 130.61 45.799 129.755 44.945 128.702 44.945 Z M 49.542 44.949 C 48.488 44.949 47.634 45.803 47.634 46.857 C 47.634 47.911 48.488 48.765 49.542 48.765 C 50.596 48.765 51.45 47.911 51.45 46.857 C 51.45 45.803 50.596 44.949 49.542 44.949 Z M 107.101 44.945 C 106.047 44.945 105.193 45.799 105.193 46.853 C 105.193 47.907 106.047 48.761 107.101 48.761 C 108.154 48.761 109.009 47.907 109.009 46.853 C 109.009 45.799 108.154 44.945 107.101 44.945 Z M 171.9 44.945 C 170.847 44.945 169.992 45.799 169.992 46.853 C 169.992 47.907 170.847 48.761 171.9 48.761 C 172.954 48.761 173.808 47.907 173.808 46.853 C 173.808 45.799 172.954 44.945 171.9 44.945 Z M 92.742 44.949 C 91.688 44.949 90.834 45.803 90.834 46.857 C 90.834 47.911 91.688 48.765 92.742 48.765 C 93.796 48.765 94.65 47.911 94.65 46.857 C 94.65 45.803 93.796 44.949 92.742 44.949 Z M 27.942 44.949 C 26.888 44.949 26.034 45.803 26.034 46.857 C 26.034 47.911 26.888 48.765 27.942 48.765 C 28.996 48.765 29.85 47.911 29.85 46.857 C 29.85 45.803 28.996 44.949 27.942 44.949 Z M 135.941 37.75 C 134.887 37.75 134.033 38.604 134.033 39.658 C 134.033 40.712 134.887 41.566 135.941 41.566 C 136.995 41.566 137.849 40.712 137.849 39.658 C 137.849 38.604 136.995 37.75 135.941 37.75 Z M 121.501 44.945 C 120.447 44.945 119.593 45.799 119.593 46.853 C 119.593 47.907 120.447 48.761 121.501 48.761 C 122.554 48.761 123.409 47.907 123.409 46.853 C 123.409 45.799 122.554 44.945 121.501 44.945 Z M 78.342 44.949 C 77.288 44.949 76.434 45.803 76.434 46.857 C 76.434 47.911 77.288 48.765 78.342 48.765 C 79.396 48.765 80.25 47.911 80.25 46.857 C 80.25 45.803 79.396 44.949 78.342 44.949 Z M 63.941 44.949 C 62.887 44.949 62.033 45.803 62.033 46.857 C 62.033 47.911 62.887 48.765 63.941 48.765 C 64.995 48.765 65.849 47.911 65.849 46.857 C 65.849 45.803 64.995 44.949 63.941 44.949 Z M 35.143 44.949 C 34.089 44.949 33.235 45.803 33.235 46.857 C 33.235 47.911 34.089 48.765 35.143 48.765 C 36.197 48.765 37.051 47.911 37.051 46.857 C 37.051 45.803 36.197 44.949 35.143 44.949 Z M 135.901 44.945 C 134.847 44.945 133.993 45.799 133.993 46.853 C 133.993 47.907 134.847 48.761 135.901 48.761 C 136.954 48.761 137.809 47.907 137.809 46.853 C 137.809 45.799 136.954 44.945 135.901 44.945 Z M 42.342 44.949 C 41.288 44.949 40.434 45.803 40.434 46.857 C 40.434 47.911 41.288 48.765 42.342 48.765 C 43.396 48.765 44.25 47.911 44.25 46.857 C 44.25 45.803 43.396 44.949 42.342 44.949 Z M 85.542 44.949 C 84.488 44.949 83.634 45.803 83.634 46.857 C 83.634 47.911 84.488 48.765 85.542 48.765 C 86.596 48.765 87.45 47.911 87.45 46.857 C 87.45 45.803 86.596 44.949 85.542 44.949 Z M 99.941 44.949 C 98.887 44.949 98.033 45.803 98.033 46.857 C 98.033 47.911 98.887 48.765 99.941 48.765 C 100.995 48.765 101.849 47.911 101.849 46.857 C 101.849 45.803 100.995 44.949 99.941 44.949 Z M 56.743 44.949 C 55.689 44.949 54.835 45.803 54.835 46.857 C 54.835 47.911 55.689 48.765 56.743 48.765 C 57.797 48.765 58.651 47.911 58.651 46.857 C 58.651 45.803 57.797 44.949 56.743 44.949 Z M 71.143 44.949 C 70.089 44.949 69.235 45.803 69.235 46.857 C 69.235 47.911 70.089 48.765 71.143 48.765 C 72.197 48.765 73.051 47.911 73.051 46.857 C 73.051 45.803 72.197 44.949 71.143 44.949 Z M 114.301 44.945 C 113.247 44.945 112.393 45.799 112.393 46.853 C 112.393 47.907 113.247 48.761 114.301 48.761 C 115.354 48.761 116.209 47.907 116.209 46.853 C 116.209 45.799 115.354 44.945 114.301 44.945 Z M 164.701 44.945 C 163.648 44.945 162.793 45.799 162.793 46.853 C 162.793 47.907 163.648 48.761 164.701 48.761 C 165.755 48.761 166.609 47.907 166.609 46.853 C 166.609 45.799 165.755 44.945 164.701 44.945 Z M 150.302 44.945 C 149.248 44.945 148.394 45.799 148.394 46.853 C 148.394 47.907 149.248 48.761 150.302 48.761 C 151.355 48.761 152.21 47.907 152.21 46.853 C 152.21 45.799 151.355 44.945 150.302 44.945 Z M 135.941 8.95 C 134.887 8.95 134.033 9.804 134.033 10.858 C 134.033 11.912 134.887 12.766 135.941 12.766 C 136.995 12.766 137.849 11.912 137.849 10.858 C 137.849 9.804 136.995 8.95 135.941 8.95 Z M 56.743 1.75 C 55.689 1.75 54.835 2.604 54.835 3.658 C 54.835 4.712 55.689 5.566 56.743 5.566 C 57.797 5.566 58.651 4.712 58.651 3.658 C 58.651 2.604 57.797 1.75 56.743 1.75 Z M 150.299 1.755 C 149.245 1.755 148.391 2.609 148.391 3.663 C 148.391 4.717 149.245 5.571 150.299 5.571 C 151.353 5.571 152.207 4.717 152.207 3.663 C 152.207 2.609 151.353 1.755 150.299 1.755 Z M 157.497 1.755 C 156.443 1.755 155.589 2.609 155.589 3.663 C 155.589 4.717 156.443 5.571 157.497 5.571 C 158.551 5.571 159.405 4.717 159.405 3.663 C 159.405 2.609 158.551 1.755 157.497 1.755 Z M 164.699 1.755 C 163.645 1.755 162.791 2.609 162.791 3.663 C 162.791 4.717 163.645 5.571 164.699 5.571 C 165.752 5.571 166.607 4.717 166.607 3.663 C 166.607 2.609 165.752 1.755 164.699 1.755 Z M 128.699 1.755 C 127.645 1.755 126.791 2.609 126.791 3.663 C 126.791 4.717 127.645 5.571 128.699 5.571 C 129.753 5.571 130.607 4.717 130.607 3.663 C 130.607 2.609 129.753 1.755 128.699 1.755 Z M 114.298 1.755 C 113.244 1.755 112.39 2.609 112.39 3.663 C 112.39 4.717 113.244 5.571 114.298 5.571 C 115.352 5.571 116.206 4.717 116.206 3.663 C 116.206 2.609 115.352 1.755 114.298 1.755 Z M 143.098 1.755 C 142.044 1.755 141.19 2.609 141.19 3.663 C 141.19 4.717 142.044 5.571 143.098 5.571 C 144.152 5.571 145.006 4.717 145.006 3.663 C 145.006 2.609 144.152 1.755 143.098 1.755 Z M 6.342 44.949 C 5.288 44.949 4.434 45.803 4.434 46.857 C 4.434 47.911 5.288 48.765 6.342 48.765 C 7.396 48.765 8.25 47.911 8.25 46.857 C 8.25 45.803 7.396 44.949 6.342 44.949 Z M 135.898 1.755 C 134.844 1.755 133.99 2.609 133.99 3.663 C 133.99 4.717 134.844 5.571 135.898 5.571 C 136.952 5.571 137.806 4.717 137.806 3.663 C 137.806 2.609 136.952 1.755 135.898 1.755 Z M 121.498 1.755 C 120.444 1.755 119.59 2.609 119.59 3.663 C 119.59 4.717 120.444 5.571 121.498 5.571 C 122.552 5.571 123.406 4.717 123.406 3.663 C 123.406 2.609 122.552 1.755 121.498 1.755 Z M 171.898 1.755 C 170.844 1.755 169.99 2.609 169.99 3.663 C 169.99 4.717 170.844 5.571 171.898 5.571 C 172.951 5.571 173.806 4.717 173.806 3.663 C 173.806 2.609 172.951 1.755 171.898 1.755 Z M 107.098 1.755 C 106.044 1.755 105.19 2.609 105.19 3.663 C 105.19 4.717 106.044 5.571 107.098 5.571 C 108.152 5.571 109.006 4.717 109.006 3.663 C 109.006 2.609 108.152 1.755 107.098 1.755 Z M 99.941 1.75 C 98.887 1.75 98.033 2.604 98.033 3.658 C 98.033 4.712 98.887 5.566 99.941 5.566 C 100.995 5.566 101.849 4.712 101.849 3.658 C 101.849 2.604 100.995 1.75 99.941 1.75 Z M 49.542 1.75 C 48.488 1.75 47.634 2.604 47.634 3.658 C 47.634 4.712 48.488 5.566 49.542 5.566 C 50.596 5.566 51.45 4.712 51.45 3.658 C 51.45 2.604 50.596 1.75 49.542 1.75 Z M 42.342 1.75 C 41.288 1.75 40.434 2.604 40.434 3.658 C 40.434 4.712 41.288 5.566 42.342 5.566 C 43.396 5.566 44.25 4.712 44.25 3.658 C 44.25 2.604 43.396 1.75 42.342 1.75 Z M 35.143 1.75 C 34.089 1.75 33.235 2.604 33.235 3.658 C 33.235 4.712 34.089 5.566 35.143 5.566 C 36.197 5.566 37.051 4.712 37.051 3.658 C 37.051 2.604 36.197 1.75 35.143 1.75 Z M 27.942 1.75 C 26.888 1.75 26.034 2.604 26.034 3.658 C 26.034 4.712 26.888 5.566 27.942 5.566 C 28.996 5.566 29.85 4.712 29.85 3.658 C 29.85 2.604 28.996 1.75 27.942 1.75 Z M 92.742 1.75 C 91.688 1.75 90.834 2.604 90.834 3.658 C 90.834 4.712 91.688 5.566 92.742 5.566 C 93.796 5.566 94.65 4.712 94.65 3.658 C 94.65 2.604 93.796 1.75 92.742 1.75 Z M 85.542 1.75 C 84.488 1.75 83.634 2.604 83.634 3.658 C 83.634 4.712 84.488 5.566 85.542 5.566 C 86.596 5.566 87.45 4.712 87.45 3.658 C 87.45 2.604 86.596 1.75 85.542 1.75 Z M 78.342 1.75 C 77.288 1.75 76.434 2.604 76.434 3.658 C 76.434 4.712 77.288 5.566 78.342 5.566 C 79.396 5.566 80.25 4.712 80.25 3.658 C 80.25 2.604 79.396 1.75 78.342 1.75 Z M 71.143 1.75 C 70.089 1.75 69.235 2.604 69.235 3.658 C 69.235 4.712 70.089 5.566 71.143 5.566 C 72.197 5.566 73.051 4.712 73.051 3.658 C 73.051 2.604 72.197 1.75 71.143 1.75 Z M 63.941 1.75 C 62.887 1.75 62.033 2.604 62.033 3.658 C 62.033 4.712 62.887 5.566 63.941 5.566 C 64.995 5.566 65.849 4.712 65.849 3.658 C 65.849 2.604 64.995 1.75 63.941 1.75 Z M 13.542 44.949 C 12.488 44.949 11.634 45.803 11.634 46.857 C 11.634 47.911 12.488 48.765 13.542 48.765 C 14.596 48.765 15.45 47.911 15.45 46.857 C 15.45 45.803 14.596 44.949 13.542 44.949 Z M 135.943 30.55 C 134.889 30.55 134.035 31.404 134.035 32.458 C 134.035 33.512 134.889 34.366 135.943 34.366 C 136.997 34.366 137.851 33.512 137.851 32.458 C 137.851 31.404 136.997 30.55 135.943 30.55 Z M 135.943 23.35 C 134.889 23.35 134.035 24.204 134.035 25.258 C 134.035 26.312 134.889 27.166 135.943 27.166 C 136.997 27.166 137.851 26.312 137.851 25.258 C 137.851 24.204 136.997 23.35 135.943 23.35 Z M 135.943 16.149 C 134.889 16.149 134.035 17.003 134.035 18.057 C 134.035 19.111 134.889 19.965 135.943 19.965 C 136.997 19.965 137.851 19.111 137.851 18.057 C 137.851 17.003 136.997 16.149 135.943 16.149 Z M 20.742 44.949 C 19.688 44.949 18.834 45.803 18.834 46.857 C 18.834 47.911 19.688 48.765 20.742 48.765 C 21.796 48.765 22.65 47.911 22.65 46.857 C 22.65 45.803 21.796 44.949 20.742 44.949 Z M 6.342 1.75 C 5.288 1.75 4.434 2.604 4.434 3.658 C 4.434 4.712 5.288 5.566 6.342 5.566 C 7.396 5.566 8.25 4.712 8.25 3.658 C 8.25 2.604 7.396 1.75 6.342 1.75 Z M 20.742 1.75 C 19.688 1.75 18.834 2.604 18.834 3.658 C 18.834 4.712 19.688 5.566 20.742 5.566 C 21.796 5.566 22.65 4.712 22.65 3.658 C 22.65 2.604 21.796 1.75 20.742 1.75 Z M 13.542 1.75 C 12.488 1.75 11.634 2.604 11.634 3.658 C 11.634 4.712 12.488 5.566 13.542 5.566 C 14.596 5.566 15.45 4.712 15.45 3.658 C 15.45 2.604 14.596 1.75 13.542 1.75 Z M 24.459 36.908 C 23.405 36.908 22.551 37.762 22.551 38.816 C 22.551 39.87 23.405 40.724 24.459 40.724 C 25.513 40.724 26.367 39.87 26.367 38.816 C 26.367 37.762 25.513 36.908 24.459 36.908 Z M 46.06 36.908 C 45.006 36.908 44.152 37.762 44.152 38.816 C 44.152 39.87 45.006 40.724 46.06 40.724 C 47.114 40.724 47.968 39.87 47.968 38.816 C 47.968 37.762 47.114 36.908 46.06 36.908 Z M 31.659 36.908 C 30.605 36.908 29.751 37.762 29.751 38.816 C 29.751 39.87 30.605 40.724 31.659 40.724 C 32.712 40.724 33.567 39.87 33.567 38.816 C 33.567 37.762 32.712 36.908 31.659 36.908 Z M 38.858 36.908 C 37.804 36.908 36.95 37.762 36.95 38.816 C 36.95 39.87 37.804 40.724 38.858 40.724 C 39.912 40.724 40.766 39.87 40.766 38.816 C 40.766 37.762 39.912 36.908 38.858 36.908 Z M 143.101 44.945 C 142.047 44.945 141.193 45.799 141.193 46.853 C 141.193 47.907 142.047 48.761 143.101 48.761 C 144.154 48.761 145.009 47.907 145.009 46.853 C 145.009 45.799 144.154 44.945 143.101 44.945 Z M 157.5 44.945 C 156.446 44.945 155.592 45.799 155.592 46.853 C 155.592 47.907 156.446 48.761 157.5 48.761 C 158.553 48.761 159.408 47.907 159.408 46.853 C 159.408 45.799 158.553 44.945 157.5 44.945 Z M 29.774 11.891 C 29.774 10.891 28.96 10.078 27.962 10.078 C 26.962 10.078 26.15 10.897 26.15 11.891 C 26.15 12.891 26.962 13.704 27.962 13.704 C 28.96 13.704 29.774 12.891 29.774 11.891 Z M 40.55 11.892 C 40.55 12.892 41.362 13.705 42.362 13.705 C 43.361 13.705 44.174 12.892 44.174 11.892 C 44.174 10.892 43.36 10.079 42.362 10.079 C 41.362 10.079 40.551 10.894 40.55 11.892 Z M 15.374 11.891 C 15.374 10.891 14.56 10.078 13.562 10.078 C 12.562 10.078 11.75 10.897 11.75 11.891 C 11.75 12.891 12.562 13.704 13.562 13.704 C 14.56 13.704 15.374 12.891 15.374 11.891 Z M 36.974 11.891 C 36.974 10.891 36.16 10.078 35.162 10.078 C 34.162 10.078 33.35 10.897 33.35 11.891 C 33.35 12.891 34.162 13.704 35.162 13.704 C 36.16 13.704 36.974 12.891 36.974 11.891 Z M 53.259 36.908 C 52.205 36.908 51.351 37.762 51.351 38.816 C 51.351 39.87 52.205 40.724 53.259 40.724 C 54.313 40.724 55.167 39.87 55.167 38.816 C 55.167 37.762 54.313 36.908 53.259 36.908 Z" style="fill: rgb(18, 62, 0);"/>
  <g id="_x30_.3">
    <polygon points="0.035,34.735,0.035,15.892,17.16,15.892,17.16,34.737" id="_x30_.3.0" fill="#B3B3B3"/>
    <rect x="7.504" y="34.936" width="3.041" id="_x30_.3.1" fill="#666666" height="1.83"/>
    <rect x="7.504" y="13.832" width="3.041" id="_x30_.3.2" fill="#666666" height="1.829"/>
    <rect x="17.03" y="15.892" width="0.13" id="_x30_.3.3" fill="#CCCCCC" height="18.845"/>
    <rect x="0.307" y="20.152" width="16.853" id="_x30_.3.4" fill="#333333" height="10.292"/>
    <rect y="14.658" width="0.576" id="_x30_.3.5" fill="#B3B3B3" height="1.003"/>
    <rect y="15.021" width="0.576" id="_x30_.3.6" fill="#CCCCCC" height="0.646"/>
    <rect y="34.934" width="0.576" id="_x30_.3.7" fill="#B3B3B3" height="1.002"/>
    <rect y="34.934" width="0.576" id="_x30_.3.8" fill="#CCCCCC" height="0.646"/>
    <path d="M16.593,15.661l0.567,0.229l0,2.534c0,0,-0.113,-2.302,-0.283,-2.384s-0.284,0.106,-0.284,0.106L16.593,15.661z" id="_x30_.3.9" fill="#CCCCCC"/>
    <path d="M16.593,34.936l0.566,-0.229l0,-2.533c0,0,-0.113,2.301,-0.283,2.383s-0.283,-0.105,-0.283,-0.105L16.593,34.936z" id="_x30_.3.10" fill="#CCCCCC"/>
    <path d="M16.593,31.547l-1.066,0l0,-1.605l1.634,0l0,-0.461l-0.566,0l0,-8.36l0.566,0l0,-0.525l-1.635,0L15.526,18.99l1.067,0l0,-3.321L0.153,15.669l0,19.271l16.44,0L16.593,31.547zM3.303,20.592L2.489,20.592l0,-1.593L3.37,18.999c0.277,-0.426,0.76,-0.708,1.307,-0.708c0.598,0,1.105,0.219,1.369,0.708l0,0l4.48,0l0,1.592L6.043,20.591c-0.264,0.488,-0.773,0.825,-1.371,0.825C4.076,21.416,3.567,21.08,3.303,20.592zM3.303,31.479L2.489,31.479l0,-1.592L3.37,29.887c0.277,-0.426,0.76,-0.707,1.307,-0.707c0.598,0,1.105,0.217,1.369,0.707l0,0l4.48,0l0,1.592L6.043,31.479c-0.264,0.49,-0.773,0.826,-1.371,0.826C4.076,32.305,3.567,31.971,3.303,31.479z" id="_x30_.3.11" fill="#E6E6E6"/>
    <polygon points="0.151,16.066,0.151,15.661,16.593,15.661,16.593,17.191" id="_x30_.3.12" fill="#F2F2F2"/>
    <polygon points="0.151,34.936,11.129,34.368,16.593,33.799,16.593,34.936" id="_x30_.3.13" fill="#999999"/>
    <rect x="10.395" y="18.999" width="0.131" id="_x30_.3.14" fill="#CCCCCC" height="1.592"/>
    <rect x="10.395" y="29.889" width="0.131" id="_x30_.3.15" fill="#CCCCCC" height="1.592"/>
    <rect x="0.354" y="16.605" width="0.66" id="_x30_.3.16" fill="#B3B3B3" height="17.391"/>
    <rect x="0.151" y="16.605" width="0.313" id="_x30_.3.17" fill="#CCCCCC" height="17.391"/>
  </g>
  <rect x="74.541" y="6.934" width="36.958" id="_x30_.5" fill="#333333" height="36.927"/>
  <rect x="90.197" y="36.834" width="5.779" id="_x30_.6" fill="#333333" height="5.773"/>
  <rect x="16.751" y="8.653" width="8.018" id="_x30_.7" fill="#333333" height="3.672" style="stroke-width: 0.25; stroke: rgb(255, 255, 255);"/>
  <rect x="47.072" y="18.128" width="8.702" id="_x30_.8" fill="#333333" height="8.55" style="stroke-width: 0.25; stroke: rgb(255, 255, 255);"/>
  <rect x="84.005" y="37.168" width="2.101" id="_x30_.9" fill="#333333" height="4.289"/>
  <rect x="78.791" y="40.408" width="4.289" id="_x30_.10" fill="#333333" height="2.101"/>
  <rect x="75.633" y="9.342" width="5.027" id="_x30_.11" fill="#333333" height="2.104" transform="matrix(1.000002, 0, 0, 1, -11.098946, 0)" style="stroke: rgb(255, 255, 255); stroke-width: 0.25;"/>
  <rect x="73.487" y="14.04" width="2.907" id="_x30_.12" fill="#333333" height="5.567" transform="matrix(0.999999, 0, 0, 1, -20.644534, -4.944444)" style="stroke-width: 0.25; stroke: rgb(255, 255, 255);"/>
  <rect x="59.319" y="19.464" width="5.698" id="_x30_.13" fill="#333333" height="2.966" style="stroke-width: 0.25; stroke: rgb(255, 255, 255);" transform="matrix(0.999999, 0, 0, 1, -12.870715, -6.875028)"/>
  <rect x="32.73" y="18.805" width="8.041" id="_x30_.14" fill="#333333" height="3.622" style="stroke-width: 0.25; stroke: rgb(255, 255, 255);"/>
  <g id="_x30_.15.1" transform="matrix(6.335531, 0, 0, 1.16101, -99.888268, 1.49185)">
    <rect x="18.702" y="21.128" width="2.101" id="_x30_.15.1.0" fill="#333333" height="6.221" style="stroke: rgb(255, 255, 255); stroke-width: 0.0728992;"/>
  </g>
  <g id="_x30_.15.2" transform="matrix(3.940342, 0, 0, 1.145165, -92.690483, 6.275422)">
    <rect x="31.925" y="17.146" width="2.101" id="_x30_.15.2.0" fill="#333333" height="3.733"/>
  </g>
  <g id="_x30_.15.3" transform="matrix(3.628085, 0, 0, 0.765352, -82.652351, 15.421696)">
    <rect x="35.901" y="17.146" width="2.101" id="_x30_.15.3.0" fill="#333333" height="4.703" style="stroke: rgb(255, 255, 255); stroke-width: 0.124655;"/>
  </g>
  <g id="_x30_.15.4" transform="matrix(2.583389, 0, 0, 0.765284, -43.44899, 10.196889)">
    <rect x="39.877" y="17.146" width="2.101" id="_x30_.15.4.0" fill="#333333" height="3.733" style="stroke: rgb(255, 255, 255); stroke-width: 0.149313;"/>
  </g>
  <g id="_x30_.15.5" transform="matrix(2.564608, 0, 0, 0.709246, -52.805653, 14.976458)">
    <rect x="43.853" y="17.146" width="2.101" id="_x30_.15.5.0" fill="#333333" height="3.733" style="stroke: rgb(255, 255, 255); stroke-width: 0.152725;"/>
  </g>
  <rect x="88.887" y="8.368" width="5.704" id="_x30_.16" fill="#333333" height="2.101"/>
  <rect x="82.203" y="8.368" width="5.704" id="_x30_.17" fill="#333333" height="2.101"/>
  <rect x="22.526" y="14.295" width="8.165" id="_x30_.18" fill="#333333" height="3.834" style="stroke-width: 0.25; stroke: rgb(255, 255, 255);"/>
  <rect x="61.484" y="32.069" width="8.224" id="_x30_.19" fill="#333333" height="8.093"/>
  <rect x="32.124" y="14.232" width="8.387" id="_x30_.20" fill="#333333" height="3.967" style="stroke-width: 0.25; stroke: rgb(255, 255, 255);"/>
  <rect x="23.98" y="18.883" width="6.712" id="_x30_.21" fill="#333333" height="6.052" style="stroke-width: 0.25; stroke: rgb(255, 255, 255);"/>
  <rect x="56.447" y="8.677" width="3.507" id="_x30_.23" fill="#333333" height="7.864" style="stroke-width: 0.25; stroke: rgb(255, 255, 255);"/>
  <g style="opacity: 0.55;" transform="matrix(1.082187, 0, 0, 0.95685, -10.35436, 1.464806)">
    <polygon points="122.597 22.578 122.789 22.578 122.789 27.717 122.597 27.717 122.597 31.6 130.826 31.6 130.826 18.695 122.597 18.695" id="_x30_.24.0" fill="#CCCCCC"/>
    <polygon points="132.145 27.717 131.956 27.717 131.956 22.578 132.145 22.578 132.145 18.695 123.977 18.695 123.977 31.6 132.145 31.6" id="_x30_.24.1" fill="#CCCCCC"/>
    <circle cx="92.389" cy="25.3" id="_x30_.24.5" fill="#333333" r="2.232" transform="matrix(1.305561, 0, 0, 2.12502, 6.683149, -28.947765)"/>
    <rect x="131.945" enable-background="new    " y="18.694" opacity="0.2" width="0.191" id="_x30_.24.11" height="3.884"/>
    <rect x="131.945" enable-background="new    " y="27.717" opacity="0.2" width="0.191" id="_x30_.24.12" height="3.883"/>
    <rect x="125.081" enable-background="new    " y="26.931" opacity="0.2" width="0.191" id="_x30_.24.13" height="5.139" transform="matrix(0.99996, 0, 0, 1, 6.67813, -4.352892)"/>
  </g>
  <rect x="115.914" enable-background="new    " y="23.047" opacity="0.2" width="0.191" id="_x30_.24.8" fill="#FFFFFF" height="3.884" transform="matrix(1.00004, 0, 0, 1, 6.678504, -4.352869)"/>
  <rect x="115.914" enable-background="new    " y="32.07" opacity="0.2" width="0.191" id="_x30_.24.9" fill="#FFFFFF" height="3.883" transform="matrix(1.00004, 0, 0, 1, 6.678504, -4.35288)"/>
  <rect x="122.789" enable-background="new    " y="22.578" opacity="0.2" width="0.191" id="_x30_.24.10" fill="#FFFFFF" height="5.139"/>
  <circle cx="99.941" cy="3.723" stroke-width="1.224" stroke="#9A916C" id="connector19pin" fill="none" r="1.908"/>
  <circle cx="92.742" cy="3.723" stroke-width="1.224" stroke="#9A916C" id="connector20pin" fill="none" r="1.908"/>
  <circle cx="85.542" cy="3.723" stroke-width="1.224" stroke="#9A916C" id="connector21pin" fill="none" r="1.908"/>
  <circle cx="78.342" cy="3.723" stroke-width="1.224" stroke="#9A916C" id="connector22pin" fill="none" r="1.908"/>
  <circle cx="71.143" cy="3.723" stroke-width="1.224" stroke="#9A916C" id="connector23pin" fill="none" r="1.908"/>
  <circle cx="63.941" cy="3.723" stroke-width="1.224" stroke="#9A916C" id="connector24pin" fill="none" r="1.908"/>
  <circle cx="56.743" cy="3.723" stroke-width="1.224" stroke="#9A916C" id="connector25pin" fill="none" r="1.908"/>
  <circle cx="49.542" cy="3.723" stroke-width="1.224" stroke="#9A916C" id="connector26pin" fill="none" r="1.908"/>
  <circle cx="42.342" cy="3.723" stroke-width="1.224" stroke="#9A916C" id="connector27pin" fill="none" r="1.908"/>
  <circle cx="35.143" cy="3.723" stroke-width="1.224" stroke="#9A916C" id="connector28pin" fill="none" r="1.908"/>
  <circle cx="27.942" cy="3.723" stroke-width="1.224" stroke="#9A916C" id="connector29pin" fill="none" r="1.908"/>
  <circle cx="20.742" cy="3.723" stroke-width="1.224" stroke="#9A916C" id="connector30pin" fill="none" r="1.908"/>
  <circle cx="13.542" cy="3.723" stroke-width="1.224" stroke="#9A916C" id="connector31pin" fill="none" r="1.908"/>
  <circle cx="6.342" cy="3.723" stroke-width="1.224" stroke="#9A916C" id="connector32pin" fill="none" r="1.908"/>
  <circle cx="99.941" cy="46.922" stroke-width="1.224" stroke="#9A916C" id="connector13pin" fill="none" r="1.908"/>
  <circle cx="92.742" cy="46.922" stroke-width="1.224" stroke="#9A916C" id="connector12pin" fill="none" r="1.908"/>
  <circle cx="85.542" cy="46.922" stroke-width="1.224" stroke="#9A916C" id="connector11pin" fill="none" r="1.908"/>
  <circle cx="78.342" cy="46.922" stroke-width="1.224" stroke="#9A916C" id="connector10pin" fill="none" r="1.908"/>
  <circle cx="71.143" cy="46.922" stroke-width="1.224" stroke="#9A916C" id="connector9pin" fill="none" r="1.908"/>
  <circle cx="63.941" cy="46.922" stroke-width="1.224" stroke="#9A916C" id="connector8pin" fill="none" r="1.908"/>
  <circle cx="56.743" cy="46.922" stroke-width="1.224" stroke="#9A916C" id="connector7pin" fill="none" r="1.908"/>
  <circle cx="49.542" cy="46.922" stroke-width="1.224" stroke="#9A916C" id="connector6pin" fill="none" r="1.908"/>
  <circle cx="42.342" cy="46.922" stroke-width="1.224" stroke="#9A916C" id="connector5pin" fill="none" r="1.908"/>
  <circle cx="35.143" cy="46.922" stroke-width="1.224" stroke="#9A916C" id="connector4pin" fill="none" r="1.908"/>
  <circle cx="27.942" cy="46.922" stroke-width="1.224" stroke="#9A916C" id="connector3pin" fill="none" r="1.908"/>
  <circle cx="20.742" cy="46.922" stroke-width="1.224" stroke="#9A916C" id="connector2pin" fill="none" r="1.908"/>
  <circle cx="13.542" cy="46.922" stroke-width="1.224" stroke="#9A916C" id="connector1pin" fill="none" r="1.908"/>
  <circle cx="6.342" cy="46.922" stroke-width="1.224" stroke="#9A916C" id="connector0pin" fill="none" r="1.908"/>
  <circle cx="99.943" cy="32.523" stroke-width="1.224" stroke="#9A916C" id="connector15pin" fill="none" r="1.908" transform="matrix(0.999996, 0, 0, 1, 36.000392, 0)"/>
  <circle cx="99.941" cy="39.723" stroke-width="1.224" stroke="#9A916C" id="connector14pin" fill="none" r="1.908" transform="matrix(1.000004, 0, 0, 1, 35.999593, 0)"/>
  <circle cx="99.943" cy="25.323" stroke-width="1.224" stroke="#9A916C" id="connector16pin" fill="none" r="1.908" transform="matrix(0.999996, 0, 0, 1, 36.000392, 0)"/>
  <circle cx="99.941" cy="10.923" stroke-width="1.224" stroke="#9A916C" id="connector18pin" fill="none" r="1.908" transform="matrix(1.000004, 0, 0, 1, 35.999593, 0)"/>
  <circle cx="99.943" cy="18.122" stroke-width="1.224" stroke="#9A916C" id="connector17pin" fill="none" r="1.908" transform="matrix(0.999996, 0, 0, 1, 36.000392, 0)"/>
  <circle cx="1.762" cy="44.854" stroke-width="1.224" stroke="#9A916C" id="circle-11" fill="none" r="1.908" transform="matrix(0.999998, 0, 0, 1, 134.13858, 2.064152)"/>
  <circle cx="1.762" cy="44.854" stroke-width="1.224" stroke="#9A916C" id="circle-22" fill="none" r="1.908" transform="matrix(0.999998, 0, 0, 1, 134.135986, -41.125851)"/>
  <g transform="matrix(1, 0, 0, 1, 76.564796, 47.852409)">
    <g>
      <g>
        <g>
          <g>
            <g id="g156">
              <g id="g158">
                <g id="_x30_.25_1_">
                  <g id="_x30_.25">
                    <g id="_x30_.25.0">
                      <g transform="matrix(1, 0, 0, 1, 0, -6.2002)">
                        <text font-size="3.8634" font-family="'OCRA'" id="_x30_.25.0.0" fill="#C8C8C8" style="white-space: pre;">teensy3.6</text>
                      </g>
                    </g>
                  </g>
                </g>
              </g>
            </g>
          </g>
        </g>
      </g>
    </g>
  </g>
  <circle cx="78.342" cy="46.922" stroke-width="1.224" stroke="#9A916C" id="circle-1" fill="none" r="1.908" transform="matrix(0.999996, 0, 0, 1, 93.558632, -0.004)"/>
  <circle cx="71.143" cy="46.922" stroke-width="1.224" stroke="#9A916C" id="circle-2" fill="none" r="1.908" transform="matrix(0.999996, 0, 0, 1, 93.558601, -0.004)"/>
  <circle cx="59.361" cy="44.854" stroke-width="1.224" stroke="#9A916C" id="circle-3" fill="none" r="1.908" transform="matrix(1.000002, 0, 0, 1, 98.138469, 2.064152)"/>
  <circle cx="52.163" cy="44.854" stroke-width="1.224" stroke="#9A916C" id="circle-4" fill="none" r="1.908" transform="matrix(1.000002, 0, 0, 1, 98.138487, 2.064152)"/>
  <circle cx="44.962" cy="44.854" stroke-width="1.224" stroke="#9A916C" id="circle-5" fill="none" r="1.908" transform="matrix(1.000002, 0, 0, 1, 98.138494, 2.064152)"/>
  <circle cx="37.762" cy="44.854" stroke-width="1.224" stroke="#9A916C" id="circle-6" fill="none" r="1.908" transform="matrix(1.000002, 0, 0, 1, 98.138512, 2.064152)"/>
  <circle cx="30.563" cy="44.854" stroke-width="1.224" stroke="#9A916C" id="circle-7" fill="none" r="1.908" transform="matrix(1.000002, 0, 0, 1, 98.138523, 2.064152)"/>
  <circle cx="23.362" cy="44.854" stroke-width="1.224" stroke="#9A916C" id="circle-8" fill="none" r="1.908" transform="matrix(0.999998, 0, 0, 1, 98.138635, 2.064152)"/>
  <circle cx="16.162" cy="44.854" stroke-width="1.224" stroke="#9A916C" id="circle-9" fill="none" r="1.908" transform="matrix(0.999999, 0, 0, 1, 98.138606, 2.064152)"/>
  <circle cx="8.962" cy="44.854" stroke-width="1.224" stroke="#9A916C" id="circle-10" fill="none" r="1.908" transform="matrix(1.000002, 0, 0, 1, 98.138564, 2.064152)"/>
  <circle cx="78.342" cy="46.922" stroke-width="1.224" stroke="#9A916C" id="circle-12" fill="none" r="1.908" transform="matrix(0.999996, 0, 0, 1, 93.556046, -43.194)"/>
  <circle cx="71.143" cy="46.922" stroke-width="1.224" stroke="#9A916C" id="circle-13" fill="none" r="1.908" transform="matrix(0.999996, 0, 0, 1, 93.556015, -43.194)"/>
  <circle cx="59.361" cy="44.854" stroke-width="1.224" stroke="#9A916C" id="circle-14" fill="none" r="1.908" transform="matrix(0.999994, 0, 0, 1, 98.136365, -41.125851)"/>
  <circle cx="52.163" cy="44.854" stroke-width="1.224" stroke="#9A916C" id="circle-15" fill="none" r="1.908" transform="matrix(1.000002, 0, 0, 1, 98.135893, -41.125851)"/>
  <circle cx="44.962" cy="44.854" stroke-width="1.224" stroke="#9A916C" id="circle-16" fill="none" r="1.908" transform="matrix(1.000002, 0, 0, 1, 98.135916, -41.125851)"/>
  <circle cx="37.762" cy="44.854" stroke-width="1.224" stroke="#9A916C" id="circle-17" fill="none" r="1.908" transform="matrix(0.999994, 0, 0, 1, 98.136238, -41.125851)"/>
  <circle cx="30.563" cy="44.854" stroke-width="1.224" stroke="#9A916C" id="circle-18" fill="none" r="1.908" transform="matrix(0.999994, 0, 0, 1, 98.136189, -41.125851)"/>
  <circle cx="23.362" cy="44.854" stroke-width="1.224" stroke="#9A916C" id="circle-19" fill="none" r="1.908" transform="matrix(1.000002, 0, 0, 1, 98.135955, -41.125851)"/>
  <circle cx="16.162" cy="44.854" stroke-width="1.224" stroke="#9A916C" id="circle-20" fill="none" r="1.908" transform="matrix(0.999999, 0, 0, 1, 98.13602, -41.125851)"/>
  <circle cx="8.962" cy="44.854" stroke-width="1.224" stroke="#9A916C" id="circle-21" fill="none" r="1.908" transform="matrix(1.000002, 0, 0, 1, 98.135977, -41.125851)"/>
  <rect x="139.908" y="8.151" width="35" height="34.302" style="fill: rgb(91, 91, 91);"/>
  <rect x="130.092" y="25.345" width="6.63" height="8.531" style="stroke-width: 0.5; stroke: rgb(163, 148, 106); fill: rgb(156, 158, 152);" transform="matrix(0.999999, 0, 0, 1, -17.089709, 5.521954)"/>
  <rect x="127.053" y="36.219" width="8.973" height="4.16" style="fill: rgb(91, 91, 91); stroke-width: 0.5; stroke: rgb(246, 219, 80); opacity: 0.62;" transform="matrix(0.999999, 0, 0, 1, -4.554938, 0)"/>
  <circle cx="53.259" cy="38.357" stroke-width="1.224" stroke="#9A916C" id="circle-23" fill="none" r="1.908"/>
  <circle cx="46.06" cy="38.357" stroke-width="1.224" stroke="#9A916C" id="circle-24" fill="none" r="1.908"/>
  <circle cx="27.942" cy="46.922" stroke-width="1.224" stroke="#9A916C" id="circle-25" fill="none" r="1.908" transform="matrix(1.000001, 0, 0, 1, 10.916216, -8.565332)"/>
  <circle cx="26.218" cy="23.66" stroke-width="1.224" stroke="#9A916C" id="circle-26" fill="none" r="1.908" transform="matrix(0.999999, 0, 0, 1, 5.440565, 14.696323)"/>
  <circle cx="24.459" cy="38.357" stroke-width="1.224" stroke="#9A916C" id="circle-27" fill="none" r="1.908"/>
  <rect x="21.007" y="37.633" width="35.817" height="7.378" style="fill: none; stroke: rgb(255, 255, 255);" transform="matrix(1, 0, 0, 0.999999, 0, -2.802921)"/>
  <rect x="27.62" y="34.602" width="0.879" height="7.798" style="fill: rgb(255, 255, 255);"/>
  <text x="77.721" y="24.424" style="fill: rgb(255, 255, 255); font-size: 3px; letter-spacing: 0.2px; white-space: pre;">MK66FX1M9VMD18</text>
  <rect x="112.9" y="9.51" width="5.898" height="5.898" style="stroke: rgb(255, 255, 255); fill: rgb(29, 29, 29); stroke-width: 0.25;"/>
  <rect transform="matrix(1.000001, 0, 0, 1, -9.722077, -27.970988)" x="133.087" y="36.34" width="7.801" height="4.091" style="stroke: rgb(255, 255, 255); fill: rgb(43, 43, 43); stroke-width: 0.25;"/>
  <rect transform="matrix(1.000001, 0, 0, 1.000001, -9.722116, -27.971026)" x="129.852" y="41.191" width="5.613" height="2.854" style="stroke: rgb(255, 255, 255); fill: rgb(43, 43, 43); stroke-width: 0.25;"/>
  <rect transform="matrix(0.999999, 0, 0, 1, -9.721736, -27.970982)" x="136.131" y="41.286" width="5.327" height="2.759" style="stroke: rgb(255, 255, 255); fill: rgb(43, 43, 43); stroke-width: 0.25;"/>
  <rect transform="matrix(1.000002, 0, 0, 1, -9.722222, -27.971008)" x="126.903" y="48.041" width="3.425" height="8.181" style="stroke: rgb(255, 255, 255); fill: rgb(43, 43, 43); stroke-width: 0.25;"/>
  <rect transform="matrix(1.000002, 0, 0, 1, -9.722244, -27.970978)" x="122.432" y="50.229" width="3.139" height="5.803" style="stroke: rgb(255, 255, 255); fill: rgb(43, 43, 43); stroke-width: 0.25;"/>
  <rect transform="matrix(NaN, NaN, NaN, NaN, NaN, NaN)" style="fill: rgb(216, 216, 216);"/>
  <rect x="49.527" y="8.905" width="5.556" height="3.085" style="fill: rgb(43, 43, 43); stroke-width: 0.25; stroke: rgb(255, 255, 255);" transform="matrix(0.999999, 0, 0, 1, -3.011319, 0)"/>
  <rect x="72.051" y="9.125" width="2.28" height="4.895" transform="matrix(1.000002, 0, 0, 1, -10.929808, 0)" style="fill: rgb(43, 43, 43); stroke: rgb(255, 255, 255); stroke-width: 0.25;"/>
  <rect transform="matrix(1.000002, 0, 0, 1, 29.0679, -24.873119)" x="35.943" y="42.649" width="4.962" height="2.749" style="fill: rgb(43, 43, 43); stroke: rgb(255, 255, 255); stroke-width: 0.25;"/>
  <rect transform="matrix(0.999997, 0, 0, 1, 29.068108, -24.873126)" x="42.046" y="40.839" width="2.213" height="5.231" style="fill: rgb(43, 43, 43); stroke: rgb(255, 255, 255); stroke-width: 0.25;"/>
  <rect transform="matrix(0.999998, 0, 0, 1, 29.068021, -24.873119)" x="38.089" y="46.673" width="2.481" height="5.499" style="fill: rgb(43, 43, 43); stroke: rgb(255, 255, 255); stroke-width: 0.25;"/>
  <rect x="70.845" y="23.543" width="2.682" height="5.633" style="fill: rgb(43, 43, 43); stroke: rgb(255, 255, 255); stroke-width: 0.25;"/>
  <rect x="17.524" y="13.778" width="3.715" height="7.894" style="fill: rgb(43, 43, 43); stroke-width: 0.25; stroke: rgb(255, 255, 255);"/>
  <defs>
    <style id="bx-google-fonts">@import url(https://fonts.googleapis.com/css?family=Roboto:100,100italic,300,300italic,400,400italic,500,500italic,700,700italic,900,900italic);</style>
  </defs>
  <circle cx="42.357" cy="11.215" stroke-width="1.224" stroke="#9A916C" id="circle-28" fill="none" r="1.908"/>
  <circle cx="35.158" cy="11.215" stroke-width="1.224" stroke="#9A916C" id="circle-29" fill="none" r="1.908"/>
  <circle cx="27.942" cy="3.723" stroke-width="1.224" stroke="#9A916C" id="circle-30" fill="none" r="1.908" transform="matrix(1.000001, 0, 0, 1, 0.015082, 7.49209)"/>
  <circle cx="13.557" cy="11.215" stroke-width="1.224" stroke="#9A916C" id="circle-31" fill="none" r="1.908"/>
  <rect x="168.581" y="16.82" width="6.268" height="1.404" style="fill: rgb(53, 53, 53);"/>
  <rect x="168.581" y="19.891" width="6.268" height="1.404" style="fill: rgb(53, 53, 53);"/>
  <rect x="168.581" y="23.007" width="6.268" height="1.404" style="fill: rgb(53, 53, 53);"/>
  <rect x="168.581" y="26.281" width="6.268" height="1.404" style="fill: rgb(53, 53, 53);"/>
  <rect x="168.581" y="29.475" width="6.268" height="1.404" style="fill: rgb(53, 53, 53);"/>
  <rect x="168.581" y="32.643" width="6.268" height="1.404" style="fill: rgb(53, 53, 53);"/>
  <rect x="168.581" y="35.653" width="6.268" height="1.404" style="fill: rgb(53, 53, 53);"/>
  <rect x="168.581" y="38.637" width="6.268" height="1.404" style="fill: rgb(53, 53, 53);"/>
  <rect x="17.264" y="383.323" width="0.646" height="34.064" style="fill: rgb(53, 53, 53);" transform="matrix(0.999876, 0.016875, 0, 1.000142, 156.940323, -375.378757)"/>
  <path d="M 173.906 15.445 Z" style="fill: rgb(53, 53, 53);"/>
  <path d="M 174.223 15.418 C 174.045 15.418 173.915 15.482 173.747 15.524 C 173.448 15.599 173.122 15.518 172.823 15.603 C 172.683 15.643 172.471 15.603 172.322 15.603 C 171.972 15.603 171.608 15.634 171.265 15.577 C 170.562 15.459 169.776 15.656 169.1 15.656 C 169.1 15.656 168.932 15.656 168.916 15.656 C 168.735 15.114 168.743 14.265 169.048 13.808 C 169.123 13.694 169.114 13.556 169.206 13.464 C 169.332 13.339 169.345 13.012 169.549 12.91 C 169.82 12.775 170.105 12.61 170.394 12.514 C 170.47 12.489 170.684 12.489 170.737 12.435 C 171.002 12.17 171.444 12.289 171.741 12.091 C 171.813 12.043 171.982 11.959 172.058 11.959 C 172.508 11.959 173.187 11.595 173.483 11.299 C 173.537 11.246 173.673 11.21 173.721 11.115 C 173.806 10.945 173.91 10.503 174.011 10.402 C 174.102 10.311 174.006 9.99 174.064 9.874 C 174.127 9.748 174.137 9.327 174.091 9.187 C 174.023 8.986 173.947 8.743 173.853 8.554 C 173.836 8.519 173.668 8.369 173.668 8.369 C 173.83 8.154 174.342 8.21 174.566 8.21 C 174.81 8.21 174.724 8.359 174.724 8.58 C 174.724 8.953 174.608 9.577 174.724 9.926 C 174.926 10.532 174.751 11.258 174.751 11.88 C 174.751 13.031 174.566 14.093 174.566 15.26 C 174.566 15.286 174.273 15.445 174.249 15.445 C 174.223 15.498 174.196 15.558 174.196 15.603" style="fill: rgb(53, 53, 53);"/>
  <path d="M 174.355 16.21" style="fill: none; stroke: black;"/>
  <path d="M 178.975 12.778" style="fill: none; stroke: black;"/>
  <rect x="60.454" y="35.194" width="0.967" height="0.601" style="fill: rgb(216, 216, 216);"/>
  <rect x="60.454" y="33.79" width="0.967" height="0.602" style="fill: rgb(216, 216, 216);"/>
  <rect transform="matrix(1, 0, 0, 0.999998, 37.519701, 25.331175)" x="22.934" y="11.339" width="0.967" height="0.526" style="fill: rgb(216, 216, 216);"/>
  <rect transform="matrix(0.999998, 0, 0, 1, 37.519796, 27.604653)" x="22.934" y="10.523" width="0.967" height="0.488" style="fill: rgb(216, 216, 216);"/>
  <rect x="60.454" y="35.194" width="0.967" height="0.601" style="fill: rgb(216, 216, 216);" transform="matrix(0, 0.999996, -1.000006, 0, 101.943636, -20.06996)"/>
  <rect x="60.454" y="33.79" width="0.967" height="0.602" style="fill: rgb(216, 216, 216);" transform="matrix(0, 0.999996, -1.000006, 0, 101.943627, -20.06996)"/>
  <rect transform="matrix(0, 1, -1.000013, 0, 76.612421, 17.449697)" x="22.934" y="11.339" width="0.967" height="0.526" style="fill: rgb(216, 216, 216);"/>
  <rect transform="matrix(0, 0.999998, -1, 0, 74.33882, 17.449884)" x="22.934" y="10.523" width="0.967" height="0.488" style="fill: rgb(216, 216, 216);"/>
  <rect x="60.454" y="35.194" width="0.967" height="0.601" style="fill: rgb(216, 216, 216);" transform="matrix(1.000004, 0, 0, 1, 9.265856, 0)"/>
  <rect x="60.454" y="33.79" width="0.967" height="0.602" style="fill: rgb(216, 216, 216);" transform="matrix(1.000004, 0, 0, 1, 9.265856, 0)"/>
  <rect transform="matrix(1.000002, 0, 0, 0.999996, 46.78575, 25.331217)" x="22.934" y="11.339" width="0.967" height="0.526" style="fill: rgb(216, 216, 216);"/>
  <rect transform="matrix(0.999996, 0, 0, 1.000006, 46.785983, 27.60459)" x="22.934" y="10.523" width="0.967" height="0.488" style="fill: rgb(216, 216, 216);"/>
  <rect x="60.454" y="35.194" width="0.967" height="0.601" style="fill: rgb(216, 216, 216);" transform="matrix(0, 1.000002, -1.000006, 0, 101.943861, -29.386603)"/>
  <rect x="60.454" y="33.79" width="0.967" height="0.602" style="fill: rgb(216, 216, 216);" transform="matrix(0, 1.000002, -1.000006, 0, 101.943844, -29.386603)"/>
  <rect transform="matrix(0, 1, -0.999987, 0, 76.612272, 8.133175)" x="22.934" y="11.339" width="0.967" height="0.526" style="fill: rgb(216, 216, 216);"/>
  <rect transform="matrix(0, 1, -1.000006, 0, 74.338884, 8.133362)" x="22.934" y="10.523" width="0.967" height="0.488" style="fill: rgb(216, 216, 216);"/>
  <rect transform="matrix(1.000002, 0, 0, 0.999999, 26.855337, 18.625437)" x="7.136" y="6.303" width="0.92" height="0.983" style="fill: rgb(216, 216, 216);"/>
  <rect transform="matrix(0.999999, 0, 0, 1.000001, 29.508779, 18.625418)" x="7.136" y="6.303" width="0.92" height="0.983" style="fill: rgb(216, 216, 216);"/>
  <rect transform="matrix(0.999999, 0, 0, 1.000001, 32.156263, 18.625418)" x="7.136" y="6.303" width="0.92" height="0.983" style="fill: rgb(216, 216, 216);"/>
  <rect transform="matrix(0.999999, 0, 0, 1.000001, 26.782686, 23.883153)" x="7.136" y="6.303" width="0.92" height="0.983" style="fill: rgb(216, 216, 216);"/>
  <rect transform="matrix(0.999999, 0, 0, 1.000001, 29.436128, 23.883132)" x="7.136" y="6.303" width="0.92" height="0.983" style="fill: rgb(216, 216, 216);"/>
  <rect transform="matrix(0.999999, 0, 0, 1.000001, 32.083608, 23.883132)" x="7.136" y="6.303" width="0.92" height="0.983" style="fill: rgb(216, 216, 216);"/>
</svg>
