<?xml version="1.0" encoding="utf-8"?>
<svg x="0in" y="0in" width="1.43701in" height="0.70275in" viewBox="0 0 175.682 50.598" xmlns="http://www.w3.org/2000/svg">
  <g id="_x30_.2">
    <g id="_x30_.2.0">
      <g id="_x30_.2.0.0">
        <path d="M6.348,1.167c-1.405,0,-2.554,1.146,-2.554,2.555c0,1.406,1.146,2.555,2.554,2.555c1.408,0,2.554,-1.146,2.554,-2.555C8.901,2.313,7.757,1.167,6.348,1.167zM6.348,5.531c-1,0,-1.812,-0.813,-1.812,-1.813c0,-0.998,0.812,-1.813,1.812,-1.813c0.998,0,1.812,0.813,1.812,1.813S7.346,5.531,6.348,5.531z" id="_x30_.2.0.0.0" fill="#9A916C"/>
      </g>
      <g id="_x30_.2.0.1">
        <path d="M13.549,1.167c-1.405,0,-2.554,1.146,-2.554,2.555c0,1.406,1.146,2.555,2.554,2.555c1.408,0,2.554,-1.146,2.554,-2.555C16.101,2.313,14.957,1.167,13.549,1.167zM13.549,5.531c-1,0,-1.812,-0.813,-1.812,-1.813c0,-0.998,0.812,-1.813,1.812,-1.813c0.998,0,1.812,0.813,1.812,1.813S14.547,5.531,13.549,5.531z" id="_x30_.2.0.1.0" fill="#9A916C"/>
      </g>
      <g id="_x30_.2.0.2">
        <path d="M20.749,1.167c-1.405,0,-2.554,1.146,-2.554,2.555c0,1.406,1.146,2.555,2.554,2.555s2.554,-1.146,2.554,-2.555C23.302,2.313,22.157,1.167,20.749,1.167zM20.749,5.531c-1,0,-1.812,-0.813,-1.812,-1.813c0,-0.998,0.812,-1.813,1.812,-1.813c0.998,0,1.812,0.813,1.812,1.813S21.747,5.531,20.749,5.531z" id="_x30_.2.0.2.0" fill="#9A916C"/>
      </g>
      <g id="_x30_.2.0.3">
        <path d="M27.949,1.167c-1.405,0,-2.554,1.146,-2.554,2.555c0,1.406,1.146,2.555,2.554,2.555c1.408,0,2.554,-1.146,2.554,-2.555C30.502,2.313,29.357,1.167,27.949,1.167zM27.949,5.531c-1,0,-1.812,-0.813,-1.812,-1.813c0,-0.998,0.812,-1.813,1.812,-1.813c0.998,0,1.812,0.813,1.812,1.813S28.947,5.531,27.949,5.531z" id="_x30_.2.0.3.0" fill="#9A916C"/>
      </g>
      <g id="_x30_.2.0.4">
        <path d="M35.149,1.167c-1.405,0,-2.554,1.146,-2.554,2.555c0,1.406,1.146,2.555,2.554,2.555c1.408,0,2.554,-1.146,2.554,-2.555C37.702,2.313,36.557,1.167,35.149,1.167zM35.149,5.531c-1,0,-1.812,-0.813,-1.812,-1.813c0,-0.998,0.812,-1.813,1.812,-1.813c0.998,0,1.812,0.813,1.812,1.813S36.147,5.531,35.149,5.531z" id="_x30_.2.0.4.0" fill="#9A916C"/>
      </g>
      <g id="_x30_.2.0.5">
        <path d="M42.349,1.167c-1.405,0,-2.554,1.146,-2.554,2.555c0,1.406,1.146,2.555,2.554,2.555c1.408,0,2.554,-1.146,2.554,-2.555C44.902,2.313,43.758,1.167,42.349,1.167zM42.349,5.531c-1,0,-1.812,-0.813,-1.812,-1.813c0,-0.998,0.812,-1.813,1.812,-1.813c0.998,0,1.812,0.813,1.812,1.813S43.347,5.531,42.349,5.531z" id="_x30_.2.0.5.0" fill="#9A916C"/>
      </g>
      <g id="_x30_.2.0.6">
        <path d="M49.55,1.167c-1.405,0,-2.554,1.146,-2.554,2.555c0,1.406,1.146,2.555,2.554,2.555c1.408,0,2.554,-1.146,2.554,-2.555C52.102,2.313,50.958,1.167,49.55,1.167zM49.55,5.531c-1,0,-1.812,-0.813,-1.812,-1.813c0,-0.998,0.812,-1.813,1.812,-1.813c0.998,0,1.812,0.813,1.812,1.813S50.548,5.531,49.55,5.531z" id="_x30_.2.0.6.0" fill="#9A916C"/>
      </g>
      <g id="_x30_.2.0.7">
        <path d="M56.75,1.167c-1.404,0,-2.555,1.146,-2.555,2.555c0,1.406,1.146,2.555,2.555,2.555s2.555,-1.146,2.555,-2.555C59.303,2.313,58.158,1.167,56.75,1.167zM56.75,5.531c-1,0,-1.813,-0.813,-1.813,-1.813c0,-0.998,0.813,-1.813,1.813,-1.813c0.998,0,1.813,0.813,1.813,1.813S57.748,5.531,56.75,5.531z" id="_x30_.2.0.7.0" fill="#9A916C"/>
      </g>
      <g id="_x30_.2.0.8">
        <path d="M63.95,1.167c-1.405,0,-2.554,1.146,-2.554,2.555c0,1.406,1.146,2.555,2.554,2.555c1.407,0,2.554,-1.146,2.554,-2.555C66.503,2.313,65.357,1.167,63.95,1.167zM63.95,5.531c-1,0,-1.812,-0.813,-1.812,-1.813c0,-0.998,0.812,-1.813,1.812,-1.813c0.997,0,1.812,0.813,1.812,1.813S64.947,5.531,63.95,5.531z" id="_x30_.2.0.8.0" fill="#9A916C"/>
      </g>
      <g id="_x30_.2.0.9">
        <path d="M71.15,1.167c-1.405,0,-2.555,1.146,-2.555,2.555c0,1.406,1.146,2.555,2.555,2.555c1.408,0,2.554,-1.146,2.554,-2.555C73.703,2.313,72.559,1.167,71.15,1.167zM71.15,5.531c-1,0,-1.813,-0.813,-1.813,-1.813c0,-0.998,0.813,-1.813,1.813,-1.813c0.998,0,1.812,0.813,1.812,1.813S72.148,5.531,71.15,5.531z" id="_x30_.2.0.9.0" fill="#9A916C"/>
      </g>
      <g id="_x30_.2.0.10">
        <path d="M78.352,1.167c-1.406,0,-2.555,1.146,-2.555,2.555c0,1.406,1.146,2.555,2.555,2.555c1.41,0,2.553,-1.146,2.553,-2.555S79.76,1.167,78.352,1.167zM78.352,5.531c-1,0,-1.813,-0.813,-1.813,-1.813c0,-0.998,0.813,-1.813,1.813,-1.813c0.998,0,1.813,0.813,1.813,1.813S79.35,5.531,78.352,5.531z" id="_x30_.2.0.10.0" fill="#9A916C"/>
      </g>
      <g id="_x30_.2.0.11">
        <path d="M85.551,1.167c-1.404,0,-2.553,1.146,-2.553,2.555c0,1.406,1.146,2.555,2.553,2.555c1.408,0,2.555,-1.146,2.555,-2.555C88.104,2.313,86.959,1.167,85.551,1.167zM85.551,5.531c-1,0,-1.811,-0.813,-1.811,-1.813c0,-0.998,0.811,-1.813,1.811,-1.813c0.998,0,1.813,0.813,1.813,1.813S86.549,5.531,85.551,5.531z" id="_x30_.2.0.11.0" fill="#9A916C"/>
      </g>
      <g id="_x30_.2.0.12">
        <path d="M92.752,1.167c-1.406,0,-2.555,1.146,-2.555,2.555c0,1.406,1.146,2.555,2.555,2.555s2.553,-1.146,2.553,-2.555S94.16,1.167,92.752,1.167zM92.752,5.531c-1,0,-1.813,-0.813,-1.813,-1.813c0,-0.998,0.813,-1.813,1.813,-1.813c0.998,0,1.811,0.813,1.811,1.813S93.75,5.531,92.752,5.531z" id="_x30_.2.0.12.0" fill="#9A916C"/>
      </g>
      <g id="_x30_.2.0.13">
        <path d="M99.951,1.167c-1.404,0,-2.553,1.146,-2.553,2.555c0,1.406,1.146,2.555,2.553,2.555c1.408,0,2.555,-1.146,2.555,-2.555C102.504,2.313,101.359,1.167,99.951,1.167zM99.951,5.531c-1,0,-1.811,-0.813,-1.811,-1.813c0,-0.998,0.811,-1.813,1.811,-1.813c0.998,0,1.813,0.813,1.813,1.813S100.949,5.531,99.951,5.531z" id="_x30_.2.0.13.0" fill="#9A916C"/>
      </g>
      <g id="_x30_.2.0.14">
        <path d="M13.549,9.395c-1.405,0,-2.554,1.146,-2.554,2.559c0,1.402,1.146,2.555,2.554,2.555c1.408,0,2.554,-1.146,2.554,-2.555C16.101,10.541,14.957,9.395,13.549,9.395zM13.549,13.758c-1,0,-1.812,-0.813,-1.812,-1.813c0,-0.994,0.812,-1.813,1.812,-1.813c0.998,0,1.812,0.813,1.812,1.813S14.547,13.758,13.549,13.758z" id="_x30_.2.0.14.0" fill="#9A916C"/>
      </g>
      <g id="_x30_.2.0.15">
        <path d="M27.949,9.395c-1.405,0,-2.554,1.146,-2.554,2.559c0,1.402,1.146,2.555,2.554,2.555c1.408,0,2.554,-1.146,2.554,-2.555C30.502,10.541,29.357,9.395,27.949,9.395zM27.949,13.758c-1,0,-1.812,-0.813,-1.812,-1.813c0,-0.994,0.812,-1.813,1.812,-1.813c0.998,0,1.812,0.813,1.812,1.813S28.947,13.758,27.949,13.758z" id="_x30_.2.0.15.0" fill="#9A916C"/>
      </g>
      <g id="_x30_.2.0.16">
        <path d="M35.149,9.395c-1.405,0,-2.554,1.146,-2.554,2.559c0,1.402,1.146,2.555,2.554,2.555c1.408,0,2.554,-1.146,2.554,-2.555C37.702,10.541,36.557,9.395,35.149,9.395zM35.149,13.758c-1,0,-1.812,-0.813,-1.812,-1.813c0,-0.994,0.812,-1.813,1.812,-1.813c0.998,0,1.812,0.813,1.812,1.813S36.147,13.758,35.149,13.758z" id="_x30_.2.0.16.0" fill="#9A916C"/>
      </g>
      <g id="_x30_.2.0.17">
        <path d="M42.349,9.395c-1.405,0,-2.554,1.146,-2.554,2.559c0,1.402,1.146,2.555,2.554,2.555c1.408,0,2.554,-1.146,2.554,-2.555C44.902,10.541,43.758,9.395,42.349,9.395zM42.349,13.758c-1,0,-1.812,-0.813,-1.812,-1.813c0,-0.994,0.812,-1.813,1.812,-1.813c0.998,0,1.812,0.813,1.812,1.813S43.347,13.758,42.349,13.758z" id="_x30_.2.0.17.0" fill="#9A916C"/>
      </g>
      <g id="_x30_.2.0.18">
        <path d="M40.054,21.36c-0.75,0,-1.364,0.612,-1.364,1.364c0,0.751,0.612,1.364,1.364,1.364c0.752,0,1.364,-0.612,1.364,-1.364C41.418,21.973,40.807,21.36,40.054,21.36zM40.054,23.69c-0.534,0,-0.967,-0.434,-0.967,-0.968c0,-0.533,0.433,-0.968,0.967,-0.968c0.533,0,0.968,0.434,0.968,0.968S40.588,23.69,40.054,23.69z" id="_x30_.2.0.18.0" fill="#9A916C"/>
      </g>
      <g id="_x30_.2.0.19">
        <path d="M43.901,21.36c-0.751,0,-1.364,0.612,-1.364,1.364c0,0.751,0.612,1.364,1.364,1.364s1.364,-0.612,1.364,-1.364C45.264,21.973,44.653,21.36,43.901,21.36zM43.901,23.69c-0.534,0,-0.968,-0.434,-0.968,-0.968c0,-0.533,0.434,-0.968,0.968,-0.968c0.533,0,0.967,0.434,0.967,0.968S44.433,23.69,43.901,23.69z" id="_x30_.2.0.19.0" fill="#9A916C"/>
      </g>
    </g>
    <g id="_x30_.2.1">
      <g id="_x30_.2.1.0">
        <path d="M99.951,37.168c-1.404,0,-2.553,1.146,-2.553,2.555c0,1.406,1.146,2.555,2.553,2.555c1.408,0,2.555,-1.146,2.555,-2.555C102.504,38.313,101.359,37.168,99.951,37.168zM99.951,41.531c-1,0,-1.811,-0.813,-1.811,-1.813c0,-0.998,0.811,-1.813,1.811,-1.813c0.998,0,1.813,0.813,1.813,1.813S100.949,41.531,99.951,41.531z" id="_x30_.2.1.0.0" fill="#9A916C"/>
      </g>
      <g id="_x30_.2.1.1">
        <path d="M99.951,29.969c-1.404,0,-2.553,1.146,-2.553,2.555c0,1.406,1.146,2.559,2.553,2.559c1.408,0,2.555,-1.146,2.555,-2.559C102.504,31.115,101.359,29.969,99.951,29.969zM99.951,34.331c-1,0,-1.811,-0.813,-1.811,-1.813c0,-0.998,0.811,-1.813,1.811,-1.813c0.998,0,1.813,0.813,1.813,1.813S100.949,34.331,99.951,34.331z" id="_x30_.2.1.1.0" fill="#9A916C"/>
      </g>
      <g id="_x30_.2.1.2">
        <path d="M99.951,22.769c-1.404,0,-2.553,1.146,-2.553,2.559c0,1.402,1.146,2.554,2.553,2.554c1.408,0,2.555,-1.146,2.555,-2.554C102.504,23.913,101.359,22.769,99.951,22.769zM99.951,27.129c-1,0,-1.811,-0.813,-1.811,-1.813c0,-0.998,0.811,-1.813,1.811,-1.813c0.998,0,1.813,0.813,1.813,1.813S100.949,27.129,99.951,27.129z" id="_x30_.2.1.2.0" fill="#9A916C"/>
      </g>
      <g id="_x30_.2.1.3">
        <path d="M99.951,15.568c-1.404,0,-2.553,1.146,-2.553,2.559c0,1.402,1.146,2.555,2.553,2.555c1.408,0,2.555,-1.146,2.555,-2.555C102.504,16.713,101.359,15.568,99.951,15.568zM99.951,19.93c-1,0,-1.811,-0.811,-1.811,-1.811c0,-0.998,0.811,-1.813,1.811,-1.813c0.998,0,1.813,0.813,1.813,1.813S100.949,19.93,99.951,19.93z" id="_x30_.2.1.3.0" fill="#9A916C"/>
      </g>
      <g id="_x30_.2.1.4">
        <path d="M99.951,8.368c-1.404,0,-2.553,1.146,-2.553,2.555c0,1.406,1.146,2.555,2.553,2.555c1.408,0,2.555,-1.146,2.555,-2.555C102.504,9.513,101.359,8.368,99.951,8.368zM99.951,12.729c-1,0,-1.811,-0.811,-1.811,-1.811c0,-0.998,0.811,-1.813,1.811,-1.813c0.998,0,1.813,0.813,1.813,1.813S100.949,12.729,99.951,12.729z" id="_x30_.2.1.4.0" fill="#9A916C"/>
      </g>
    </g>
    <g id="_x30_.2.2">
      <g id="_x30_.2.2.0">
        <path d="M6.348,44.321c-1.405,0,-2.554,1.146,-2.554,2.559c0,1.406,1.146,2.555,2.554,2.555c1.408,0,2.554,-1.146,2.554,-2.555C8.901,45.465,7.757,44.321,6.348,44.321zM6.348,48.682c-1,0,-1.812,-0.811,-1.812,-1.811c0,-0.998,0.812,-1.813,1.812,-1.813c0.998,0,1.812,0.813,1.812,1.813S7.346,48.682,6.348,48.682z" id="_x30_.2.2.0.0" fill="#9A916C"/>
      </g>
      <g id="_x30_.2.2.1">
        <path d="M13.549,44.321c-1.405,0,-2.554,1.146,-2.554,2.559c0,1.406,1.146,2.555,2.554,2.555c1.408,0,2.554,-1.146,2.554,-2.555C16.101,45.465,14.957,44.321,13.549,44.321zM13.549,48.682c-1,0,-1.812,-0.811,-1.812,-1.811c0,-0.998,0.812,-1.813,1.812,-1.813c0.998,0,1.812,0.813,1.812,1.813S14.547,48.682,13.549,48.682z" id="_x30_.2.2.1.0" fill="#9A916C"/>
      </g>
      <g id="_x30_.2.2.2">
        <path d="M20.749,44.321c-1.405,0,-2.554,1.146,-2.554,2.559c0,1.406,1.146,2.555,2.554,2.555s2.554,-1.146,2.554,-2.555C23.302,45.465,22.157,44.321,20.749,44.321zM20.749,48.682c-1,0,-1.812,-0.811,-1.812,-1.811c0,-0.998,0.812,-1.813,1.812,-1.813c0.998,0,1.812,0.813,1.812,1.813S21.747,48.682,20.749,48.682z" id="_x30_.2.2.2.0" fill="#9A916C"/>
      </g>
      <g id="_x30_.2.2.3">
        <path d="M27.949,44.321c-1.405,0,-2.554,1.146,-2.554,2.559c0,1.406,1.146,2.555,2.554,2.555c1.408,0,2.554,-1.146,2.554,-2.555C30.502,45.465,29.357,44.321,27.949,44.321zM27.949,48.682c-1,0,-1.812,-0.811,-1.812,-1.811c0,-0.998,0.812,-1.813,1.812,-1.813c0.998,0,1.812,0.813,1.812,1.813S28.947,48.682,27.949,48.682z" id="_x30_.2.2.3.0" fill="#9A916C"/>
      </g>
      <g id="_x30_.2.2.4">
        <path d="M35.149,44.321c-1.405,0,-2.554,1.146,-2.554,2.559c0,1.406,1.146,2.555,2.554,2.555c1.408,0,2.554,-1.146,2.554,-2.555C37.702,45.465,36.557,44.321,35.149,44.321zM35.149,48.682c-1,0,-1.812,-0.811,-1.812,-1.811c0,-0.998,0.812,-1.813,1.812,-1.813c0.998,0,1.812,0.813,1.812,1.813S36.147,48.682,35.149,48.682z" id="_x30_.2.2.4.0" fill="#9A916C"/>
      </g>
      <g id="_x30_.2.2.5">
        <path d="M42.349,44.321c-1.405,0,-2.554,1.146,-2.554,2.559c0,1.406,1.146,2.555,2.554,2.555c1.408,0,2.554,-1.146,2.554,-2.555C44.902,45.465,43.758,44.321,42.349,44.321zM42.349,48.682c-1,0,-1.812,-0.811,-1.812,-1.811c0,-0.998,0.812,-1.813,1.812,-1.813c0.998,0,1.812,0.813,1.812,1.813S43.347,48.682,42.349,48.682z" id="_x30_.2.2.5.0" fill="#9A916C"/>
      </g>
      <g id="_x30_.2.2.6">
        <path d="M49.55,44.321c-1.405,0,-2.554,1.146,-2.554,2.559c0,1.406,1.146,2.555,2.554,2.555c1.408,0,2.554,-1.146,2.554,-2.555C52.102,45.465,50.958,44.321,49.55,44.321zM49.55,48.682c-1,0,-1.812,-0.811,-1.812,-1.811c0,-0.998,0.812,-1.813,1.812,-1.813c0.998,0,1.812,0.813,1.812,1.813S50.548,48.682,49.55,48.682z" id="_x30_.2.2.6.0" fill="#9A916C"/>
      </g>
      <g id="_x30_.2.2.7">
        <path d="M56.75,44.321c-1.404,0,-2.555,1.146,-2.555,2.559c0,1.406,1.146,2.555,2.555,2.555s2.555,-1.146,2.555,-2.555C59.303,45.465,58.158,44.321,56.75,44.321zM56.75,48.682c-1,0,-1.813,-0.811,-1.813,-1.811c0,-0.998,0.813,-1.813,1.813,-1.813c0.998,0,1.813,0.813,1.813,1.813S57.748,48.682,56.75,48.682z" id="_x30_.2.2.7.0" fill="#9A916C"/>
      </g>
      <g id="_x30_.2.2.8">
        <path d="M63.95,44.321c-1.405,0,-2.554,1.146,-2.554,2.559c0,1.406,1.146,2.555,2.554,2.555c1.407,0,2.554,-1.146,2.554,-2.555C66.503,45.465,65.357,44.321,63.95,44.321zM63.95,48.682c-1,0,-1.812,-0.811,-1.812,-1.811c0,-0.998,0.812,-1.813,1.812,-1.813c0.997,0,1.812,0.813,1.812,1.813S64.947,48.682,63.95,48.682z" id="_x30_.2.2.8.0" fill="#9A916C"/>
      </g>
      <g id="_x30_.2.2.9">
        <path d="M71.15,44.321c-1.405,0,-2.555,1.146,-2.555,2.559c0,1.406,1.146,2.555,2.555,2.555c1.408,0,2.554,-1.146,2.554,-2.555C73.703,45.465,72.559,44.321,71.15,44.321zM71.15,48.682c-1,0,-1.813,-0.811,-1.813,-1.811c0,-0.998,0.813,-1.813,1.813,-1.813c0.998,0,1.812,0.813,1.812,1.813S72.148,48.682,71.15,48.682z" id="_x30_.2.2.9.0" fill="#9A916C"/>
      </g>
      <g id="_x30_.2.2.10">
        <path d="M78.352,44.321c-1.406,0,-2.555,1.146,-2.555,2.559c0,1.406,1.146,2.555,2.555,2.555c1.41,0,2.553,-1.146,2.553,-2.555C80.904,45.465,79.76,44.321,78.352,44.321zM78.352,48.682c-1,0,-1.813,-0.811,-1.813,-1.811c0,-0.998,0.813,-1.813,1.813,-1.813c0.998,0,1.813,0.813,1.813,1.813S79.35,48.682,78.352,48.682z" id="_x30_.2.2.10.0" fill="#9A916C"/>
      </g>
      <g id="_x30_.2.2.11">
        <path d="M85.551,44.321c-1.404,0,-2.553,1.146,-2.553,2.559c0,1.406,1.146,2.555,2.553,2.555c1.408,0,2.555,-1.146,2.555,-2.555C88.104,45.465,86.959,44.321,85.551,44.321zM85.551,48.682c-1,0,-1.811,-0.811,-1.811,-1.811c0,-0.998,0.811,-1.813,1.811,-1.813c0.998,0,1.813,0.813,1.813,1.813S86.549,48.682,85.551,48.682z" id="_x30_.2.2.11.0" fill="#9A916C"/>
      </g>
      <g id="_x30_.2.2.12">
        <path d="M92.752,44.321c-1.406,0,-2.555,1.146,-2.555,2.559c0,1.406,1.146,2.555,2.555,2.555s2.553,-1.146,2.553,-2.555C95.305,45.465,94.16,44.321,92.752,44.321zM92.752,48.682c-1,0,-1.813,-0.811,-1.813,-1.811c0,-0.998,0.813,-1.813,1.813,-1.813c0.998,0,1.811,0.813,1.811,1.813S93.75,48.682,92.752,48.682z" id="_x30_.2.2.12.0" fill="#9A916C"/>
      </g>
      <g id="_x30_.2.2.13">
        <path d="M99.951,44.321c-1.404,0,-2.553,1.146,-2.553,2.559c0,1.406,1.146,2.555,2.553,2.555c1.408,0,2.555,-1.146,2.555,-2.555C102.504,45.465,101.359,44.321,99.951,44.321zM99.951,48.682c-1,0,-1.811,-0.811,-1.811,-1.811c0,-0.998,0.811,-1.813,1.811,-1.813c0.998,0,1.813,0.813,1.813,1.813S100.949,48.682,99.951,48.682z" id="_x30_.2.2.13.0" fill="#9A916C"/>
      </g>
    </g>
  </g>
  <path d="M 2.84 -0.065 L 175.535 -0.065 L 175.535 50.535 L 2.84 50.535 Z M 128.702 44.945 C 127.648 44.945 126.794 45.799 126.794 46.853 C 126.794 47.907 127.648 48.761 128.702 48.761 C 129.755 48.761 130.61 47.907 130.61 46.853 C 130.61 45.799 129.755 44.945 128.702 44.945 Z M 49.542 44.949 C 48.488 44.949 47.634 45.803 47.634 46.857 C 47.634 47.911 48.488 48.765 49.542 48.765 C 50.596 48.765 51.45 47.911 51.45 46.857 C 51.45 45.803 50.596 44.949 49.542 44.949 Z M 107.101 44.945 C 106.047 44.945 105.193 45.799 105.193 46.853 C 105.193 47.907 106.047 48.761 107.101 48.761 C 108.154 48.761 109.009 47.907 109.009 46.853 C 109.009 45.799 108.154 44.945 107.101 44.945 Z M 171.9 44.945 C 170.847 44.945 169.992 45.799 169.992 46.853 C 169.992 47.907 170.847 48.761 171.9 48.761 C 172.954 48.761 173.808 47.907 173.808 46.853 C 173.808 45.799 172.954 44.945 171.9 44.945 Z M 92.742 44.949 C 91.688 44.949 90.834 45.803 90.834 46.857 C 90.834 47.911 91.688 48.765 92.742 48.765 C 93.796 48.765 94.65 47.911 94.65 46.857 C 94.65 45.803 93.796 44.949 92.742 44.949 Z M 27.942 44.949 C 26.888 44.949 26.034 45.803 26.034 46.857 C 26.034 47.911 26.888 48.765 27.942 48.765 C 28.996 48.765 29.85 47.911 29.85 46.857 C 29.85 45.803 28.996 44.949 27.942 44.949 Z M 135.941 37.75 C 134.887 37.75 134.033 38.604 134.033 39.658 C 134.033 40.712 134.887 41.566 135.941 41.566 C 136.995 41.566 137.849 40.712 137.849 39.658 C 137.849 38.604 136.995 37.75 135.941 37.75 Z M 121.501 44.945 C 120.447 44.945 119.593 45.799 119.593 46.853 C 119.593 47.907 120.447 48.761 121.501 48.761 C 122.554 48.761 123.409 47.907 123.409 46.853 C 123.409 45.799 122.554 44.945 121.501 44.945 Z M 78.342 44.949 C 77.288 44.949 76.434 45.803 76.434 46.857 C 76.434 47.911 77.288 48.765 78.342 48.765 C 79.396 48.765 80.25 47.911 80.25 46.857 C 80.25 45.803 79.396 44.949 78.342 44.949 Z M 63.941 44.949 C 62.887 44.949 62.033 45.803 62.033 46.857 C 62.033 47.911 62.887 48.765 63.941 48.765 C 64.995 48.765 65.849 47.911 65.849 46.857 C 65.849 45.803 64.995 44.949 63.941 44.949 Z M 35.143 44.949 C 34.089 44.949 33.235 45.803 33.235 46.857 C 33.235 47.911 34.089 48.765 35.143 48.765 C 36.197 48.765 37.051 47.911 37.051 46.857 C 37.051 45.803 36.197 44.949 35.143 44.949 Z M 135.901 44.945 C 134.847 44.945 133.993 45.799 133.993 46.853 C 133.993 47.907 134.847 48.761 135.901 48.761 C 136.954 48.761 137.809 47.907 137.809 46.853 C 137.809 45.799 136.954 44.945 135.901 44.945 Z M 42.342 44.949 C 41.288 44.949 40.434 45.803 40.434 46.857 C 40.434 47.911 41.288 48.765 42.342 48.765 C 43.396 48.765 44.25 47.911 44.25 46.857 C 44.25 45.803 43.396 44.949 42.342 44.949 Z M 85.542 44.949 C 84.488 44.949 83.634 45.803 83.634 46.857 C 83.634 47.911 84.488 48.765 85.542 48.765 C 86.596 48.765 87.45 47.911 87.45 46.857 C 87.45 45.803 86.596 44.949 85.542 44.949 Z M 99.941 44.949 C 98.887 44.949 98.033 45.803 98.033 46.857 C 98.033 47.911 98.887 48.765 99.941 48.765 C 100.995 48.765 101.849 47.911 101.849 46.857 C 101.849 45.803 100.995 44.949 99.941 44.949 Z M 56.743 44.949 C 55.689 44.949 54.835 45.803 54.835 46.857 C 54.835 47.911 55.689 48.765 56.743 48.765 C 57.797 48.765 58.651 47.911 58.651 46.857 C 58.651 45.803 57.797 44.949 56.743 44.949 Z M 71.143 44.949 C 70.089 44.949 69.235 45.803 69.235 46.857 C 69.235 47.911 70.089 48.765 71.143 48.765 C 72.197 48.765 73.051 47.911 73.051 46.857 C 73.051 45.803 72.197 44.949 71.143 44.949 Z M 114.301 44.945 C 113.247 44.945 112.393 45.799 112.393 46.853 C 112.393 47.907 113.247 48.761 114.301 48.761 C 115.354 48.761 116.209 47.907 116.209 46.853 C 116.209 45.799 115.354 44.945 114.301 44.945 Z M 164.701 44.945 C 163.648 44.945 162.793 45.799 162.793 46.853 C 162.793 47.907 163.648 48.761 164.701 48.761 C 165.755 48.761 166.609 47.907 166.609 46.853 C 166.609 45.799 165.755 44.945 164.701 44.945 Z M 150.302 44.945 C 149.248 44.945 148.394 45.799 148.394 46.853 C 148.394 47.907 149.248 48.761 150.302 48.761 C 151.355 48.761 152.21 47.907 152.21 46.853 C 152.21 45.799 151.355 44.945 150.302 44.945 Z M 135.941 8.95 C 134.887 8.95 134.033 9.804 134.033 10.858 C 134.033 11.912 134.887 12.766 135.941 12.766 C 136.995 12.766 137.849 11.912 137.849 10.858 C 137.849 9.804 136.995 8.95 135.941 8.95 Z M 56.743 1.75 C 55.689 1.75 54.835 2.604 54.835 3.658 C 54.835 4.712 55.689 5.566 56.743 5.566 C 57.797 5.566 58.651 4.712 58.651 3.658 C 58.651 2.604 57.797 1.75 56.743 1.75 Z M 150.299 1.755 C 149.245 1.755 148.391 2.609 148.391 3.663 C 148.391 4.717 149.245 5.571 150.299 5.571 C 151.353 5.571 152.207 4.717 152.207 3.663 C 152.207 2.609 151.353 1.755 150.299 1.755 Z M 157.497 1.755 C 156.443 1.755 155.589 2.609 155.589 3.663 C 155.589 4.717 156.443 5.571 157.497 5.571 C 158.551 5.571 159.405 4.717 159.405 3.663 C 159.405 2.609 158.551 1.755 157.497 1.755 Z M 164.699 1.755 C 163.645 1.755 162.791 2.609 162.791 3.663 C 162.791 4.717 163.645 5.571 164.699 5.571 C 165.752 5.571 166.607 4.717 166.607 3.663 C 166.607 2.609 165.752 1.755 164.699 1.755 Z M 128.699 1.755 C 127.645 1.755 126.791 2.609 126.791 3.663 C 126.791 4.717 127.645 5.571 128.699 5.571 C 129.753 5.571 130.607 4.717 130.607 3.663 C 130.607 2.609 129.753 1.755 128.699 1.755 Z M 114.298 1.755 C 113.244 1.755 112.39 2.609 112.39 3.663 C 112.39 4.717 113.244 5.571 114.298 5.571 C 115.352 5.571 116.206 4.717 116.206 3.663 C 116.206 2.609 115.352 1.755 114.298 1.755 Z M 143.098 1.755 C 142.044 1.755 141.19 2.609 141.19 3.663 C 141.19 4.717 142.044 5.571 143.098 5.571 C 144.152 5.571 145.006 4.717 145.006 3.663 C 145.006 2.609 144.152 1.755 143.098 1.755 Z M 6.342 44.949 C 5.288 44.949 4.434 45.803 4.434 46.857 C 4.434 47.911 5.288 48.765 6.342 48.765 C 7.396 48.765 8.25 47.911 8.25 46.857 C 8.25 45.803 7.396 44.949 6.342 44.949 Z M 135.898 1.755 C 134.844 1.755 133.99 2.609 133.99 3.663 C 133.99 4.717 134.844 5.571 135.898 5.571 C 136.952 5.571 137.806 4.717 137.806 3.663 C 137.806 2.609 136.952 1.755 135.898 1.755 Z M 121.498 1.755 C 120.444 1.755 119.59 2.609 119.59 3.663 C 119.59 4.717 120.444 5.571 121.498 5.571 C 122.552 5.571 123.406 4.717 123.406 3.663 C 123.406 2.609 122.552 1.755 121.498 1.755 Z M 171.898 1.755 C 170.844 1.755 169.99 2.609 169.99 3.663 C 169.99 4.717 170.844 5.571 171.898 5.571 C 172.951 5.571 173.806 4.717 173.806 3.663 C 173.806 2.609 172.951 1.755 171.898 1.755 Z M 107.098 1.755 C 106.044 1.755 105.19 2.609 105.19 3.663 C 105.19 4.717 106.044 5.571 107.098 5.571 C 108.152 5.571 109.006 4.717 109.006 3.663 C 109.006 2.609 108.152 1.755 107.098 1.755 Z M 99.941 1.75 C 98.887 1.75 98.033 2.604 98.033 3.658 C 98.033 4.712 98.887 5.566 99.941 5.566 C 100.995 5.566 101.849 4.712 101.849 3.658 C 101.849 2.604 100.995 1.75 99.941 1.75 Z M 49.542 1.75 C 48.488 1.75 47.634 2.604 47.634 3.658 C 47.634 4.712 48.488 5.566 49.542 5.566 C 50.596 5.566 51.45 4.712 51.45 3.658 C 51.45 2.604 50.596 1.75 49.542 1.75 Z M 42.342 1.75 C 41.288 1.75 40.434 2.604 40.434 3.658 C 40.434 4.712 41.288 5.566 42.342 5.566 C 43.396 5.566 44.25 4.712 44.25 3.658 C 44.25 2.604 43.396 1.75 42.342 1.75 Z M 35.143 1.75 C 34.089 1.75 33.235 2.604 33.235 3.658 C 33.235 4.712 34.089 5.566 35.143 5.566 C 36.197 5.566 37.051 4.712 37.051 3.658 C 37.051 2.604 36.197 1.75 35.143 1.75 Z M 27.942 1.75 C 26.888 1.75 26.034 2.604 26.034 3.658 C 26.034 4.712 26.888 5.566 27.942 5.566 C 28.996 5.566 29.85 4.712 29.85 3.658 C 29.85 2.604 28.996 1.75 27.942 1.75 Z M 92.742 1.75 C 91.688 1.75 90.834 2.604 90.834 3.658 C 90.834 4.712 91.688 5.566 92.742 5.566 C 93.796 5.566 94.65 4.712 94.65 3.658 C 94.65 2.604 93.796 1.75 92.742 1.75 Z M 85.542 1.75 C 84.488 1.75 83.634 2.604 83.634 3.658 C 83.634 4.712 84.488 5.566 85.542 5.566 C 86.596 5.566 87.45 4.712 87.45 3.658 C 87.45 2.604 86.596 1.75 85.542 1.75 Z M 78.342 1.75 C 77.288 1.75 76.434 2.604 76.434 3.658 C 76.434 4.712 77.288 5.566 78.342 5.566 C 79.396 5.566 80.25 4.712 80.25 3.658 C 80.25 2.604 79.396 1.75 78.342 1.75 Z M 71.143 1.75 C 70.089 1.75 69.235 2.604 69.235 3.658 C 69.235 4.712 70.089 5.566 71.143 5.566 C 72.197 5.566 73.051 4.712 73.051 3.658 C 73.051 2.604 72.197 1.75 71.143 1.75 Z M 63.941 1.75 C 62.887 1.75 62.033 2.604 62.033 3.658 C 62.033 4.712 62.887 5.566 63.941 5.566 C 64.995 5.566 65.849 4.712 65.849 3.658 C 65.849 2.604 64.995 1.75 63.941 1.75 Z M 13.542 44.949 C 12.488 44.949 11.634 45.803 11.634 46.857 C 11.634 47.911 12.488 48.765 13.542 48.765 C 14.596 48.765 15.45 47.911 15.45 46.857 C 15.45 45.803 14.596 44.949 13.542 44.949 Z M 135.943 30.55 C 134.889 30.55 134.035 31.404 134.035 32.458 C 134.035 33.512 134.889 34.366 135.943 34.366 C 136.997 34.366 137.851 33.512 137.851 32.458 C 137.851 31.404 136.997 30.55 135.943 30.55 Z M 135.943 23.35 C 134.889 23.35 134.035 24.204 134.035 25.258 C 134.035 26.312 134.889 27.166 135.943 27.166 C 136.997 27.166 137.851 26.312 137.851 25.258 C 137.851 24.204 136.997 23.35 135.943 23.35 Z M 135.943 16.149 C 134.889 16.149 134.035 17.003 134.035 18.057 C 134.035 19.111 134.889 19.965 135.943 19.965 C 136.997 19.965 137.851 19.111 137.851 18.057 C 137.851 17.003 136.997 16.149 135.943 16.149 Z M 20.742 44.949 C 19.688 44.949 18.834 45.803 18.834 46.857 C 18.834 47.911 19.688 48.765 20.742 48.765 C 21.796 48.765 22.65 47.911 22.65 46.857 C 22.65 45.803 21.796 44.949 20.742 44.949 Z M 6.342 1.75 C 5.288 1.75 4.434 2.604 4.434 3.658 C 4.434 4.712 5.288 5.566 6.342 5.566 C 7.396 5.566 8.25 4.712 8.25 3.658 C 8.25 2.604 7.396 1.75 6.342 1.75 Z M 20.742 1.75 C 19.688 1.75 18.834 2.604 18.834 3.658 C 18.834 4.712 19.688 5.566 20.742 5.566 C 21.796 5.566 22.65 4.712 22.65 3.658 C 22.65 2.604 21.796 1.75 20.742 1.75 Z M 13.542 1.75 C 12.488 1.75 11.634 2.604 11.634 3.658 C 11.634 4.712 12.488 5.566 13.542 5.566 C 14.596 5.566 15.45 4.712 15.45 3.658 C 15.45 2.604 14.596 1.75 13.542 1.75 Z M 24.459 36.908 C 23.405 36.908 22.551 37.762 22.551 38.816 C 22.551 39.87 23.405 40.724 24.459 40.724 C 25.513 40.724 26.367 39.87 26.367 38.816 C 26.367 37.762 25.513 36.908 24.459 36.908 Z M 46.06 36.908 C 45.006 36.908 44.152 37.762 44.152 38.816 C 44.152 39.87 45.006 40.724 46.06 40.724 C 47.114 40.724 47.968 39.87 47.968 38.816 C 47.968 37.762 47.114 36.908 46.06 36.908 Z M 31.659 36.908 C 30.605 36.908 29.751 37.762 29.751 38.816 C 29.751 39.87 30.605 40.724 31.659 40.724 C 32.712 40.724 33.567 39.87 33.567 38.816 C 33.567 37.762 32.712 36.908 31.659 36.908 Z M 38.858 36.908 C 37.804 36.908 36.95 37.762 36.95 38.816 C 36.95 39.87 37.804 40.724 38.858 40.724 C 39.912 40.724 40.766 39.87 40.766 38.816 C 40.766 37.762 39.912 36.908 38.858 36.908 Z M 143.101 44.945 C 142.047 44.945 141.193 45.799 141.193 46.853 C 141.193 47.907 142.047 48.761 143.101 48.761 C 144.154 48.761 145.009 47.907 145.009 46.853 C 145.009 45.799 144.154 44.945 143.101 44.945 Z M 157.5 44.945 C 156.446 44.945 155.592 45.799 155.592 46.853 C 155.592 47.907 156.446 48.761 157.5 48.761 C 158.553 48.761 159.408 47.907 159.408 46.853 C 159.408 45.799 158.553 44.945 157.5 44.945 Z M 29.774 11.891 C 29.774 10.891 28.96 10.078 27.962 10.078 C 26.962 10.078 26.15 10.897 26.15 11.891 C 26.15 12.891 26.962 13.704 27.962 13.704 C 28.96 13.704 29.774 12.891 29.774 11.891 Z M 40.55 11.892 C 40.55 12.892 41.362 13.705 42.362 13.705 C 43.361 13.705 44.174 12.892 44.174 11.892 C 44.174 10.892 43.36 10.079 42.362 10.079 C 41.362 10.079 40.551 10.894 40.55 11.892 Z M 15.374 11.891 C 15.374 10.891 14.56 10.078 13.562 10.078 C 12.562 10.078 11.75 10.897 11.75 11.891 C 11.75 12.891 12.562 13.704 13.562 13.704 C 14.56 13.704 15.374 12.891 15.374 11.891 Z M 36.974 11.891 C 36.974 10.891 36.16 10.078 35.162 10.078 C 34.162 10.078 33.35 10.897 33.35 11.891 C 33.35 12.891 34.162 13.704 35.162 13.704 C 36.16 13.704 36.974 12.891 36.974 11.891 Z M 53.259 36.908 C 52.205 36.908 51.351 37.762 51.351 38.816 C 51.351 39.87 52.205 40.724 53.259 40.724 C 54.313 40.724 55.167 39.87 55.167 38.816 C 55.167 37.762 54.313 36.908 53.259 36.908 Z" style="fill: rgb(18, 62, 0);"/>
  <g id="_x30_.3">
    <polygon points="0.035,34.735,0.035,15.892,17.16,15.892,17.16,34.737" id="_x30_.3.0" fill="#B3B3B3"/>
    <rect x="7.504" y="34.936" width="3.041" id="_x30_.3.1" fill="#666666" height="1.83"/>
    <rect x="7.504" y="13.832" width="3.041" id="_x30_.3.2" fill="#666666" height="1.829"/>
    <rect x="17.03" y="15.892" width="0.13" id="_x30_.3.3" fill="#CCCCCC" height="18.845"/>
    <rect x="0.307" y="20.152" width="16.853" id="_x30_.3.4" fill="#333333" height="10.292"/>
    <rect y="14.658" width="0.576" id="_x30_.3.5" fill="#B3B3B3" height="1.003"/>
    <rect y="15.021" width="0.576" id="_x30_.3.6" fill="#CCCCCC" height="0.646"/>
    <rect y="34.934" width="0.576" id="_x30_.3.7" fill="#B3B3B3" height="1.002"/>
    <rect y="34.934" width="0.576" id="_x30_.3.8" fill="#CCCCCC" height="0.646"/>
    <path d="M16.593,15.661l0.567,0.229l0,2.534c0,0,-0.113,-2.302,-0.283,-2.384s-0.284,0.106,-0.284,0.106L16.593,15.661z" id="_x30_.3.9" fill="#CCCCCC"/>
    <path d="M16.593,34.936l0.566,-0.229l0,-2.533c0,0,-0.113,2.301,-0.283,2.383s-0.283,-0.105,-0.283,-0.105L16.593,34.936z" id="_x30_.3.10" fill="#CCCCCC"/>
    <path d="M16.593,31.547l-1.066,0l0,-1.605l1.634,0l0,-0.461l-0.566,0l0,-8.36l0.566,0l0,-0.525l-1.635,0L15.526,18.99l1.067,0l0,-3.321L0.153,15.669l0,19.271l16.44,0L16.593,31.547zM3.303,20.592L2.489,20.592l0,-1.593L3.37,18.999c0.277,-0.426,0.76,-0.708,1.307,-0.708c0.598,0,1.105,0.219,1.369,0.708l0,0l4.48,0l0,1.592L6.043,20.591c-0.264,0.488,-0.773,0.825,-1.371,0.825C4.076,21.416,3.567,21.08,3.303,20.592zM3.303,31.479L2.489,31.479l0,-1.592L3.37,29.887c0.277,-0.426,0.76,-0.707,1.307,-0.707c0.598,0,1.105,0.217,1.369,0.707l0,0l4.48,0l0,1.592L6.043,31.479c-0.264,0.49,-0.773,0.826,-1.371,0.826C4.076,32.305,3.567,31.971,3.303,31.479z" id="_x30_.3.11" fill="#E6E6E6"/>
    <polygon points="0.151,16.066,0.151,15.661,16.593,15.661,16.593,17.191" id="_x30_.3.12" fill="#F2F2F2"/>
    <polygon points="0.151,34.936,11.129,34.368,16.593,33.799,16.593,34.936" id="_x30_.3.13" fill="#999999"/>
    <rect x="10.395" y="18.999" width="0.131" id="_x30_.3.14" fill="#CCCCCC" height="1.592"/>
    <rect x="10.395" y="29.889" width="0.131" id="_x30_.3.15" fill="#CCCCCC" height="1.592"/>
    <rect x="0.354" y="16.605" width="0.66" id="_x30_.3.16" fill="#B3B3B3" height="17.391"/>
    <rect x="0.151" y="16.605" width="0.313" id="_x30_.3.17" fill="#CCCCCC" height="17.391"/>
  </g>
  <rect x="66.735" y="6.747" width="37.64" id="_x30_.5" fill="#333333" height="37.033"/>
  <rect x="90.197" y="36.834" width="5.779" id="_x30_.6" fill="#333333" height="5.773"/>
  <rect x="17.86" y="10.023" width="5.778" id="_x30_.7" fill="#333333" height="4.159"/>
  <rect x="49.417" y="22.932" width="7.356" id="_x30_.8" fill="#333333" height="7.356"/>
  <rect x="84.005" y="37.168" width="2.101" id="_x30_.9" fill="#333333" height="4.289"/>
  <rect x="78.791" y="40.408" width="4.289" id="_x30_.10" fill="#333333" height="2.101"/>
  <rect x="88.887" y="11.149" width="4.289" id="_x30_.11" fill="#333333" height="2.104"/>
  <rect x="48.692" y="7.416" width="2.101" id="_x30_.12" fill="#333333" height="3.729"/>
  <rect x="45.946" y="7.416" width="2.101" id="_x30_.13" fill="#333333" height="3.729"/>
  <rect x="30.05" y="38.542" width="2.101" id="_x30_.14" fill="#333333" height="3.729" transform="matrix(1.000001, 0, 0, 1, 1.61918, -16.386383)"/>
  <g id="_x30_.15" transform="matrix(1, 0, 0, 1, -0.191291, 11.555204)">
    <g id="_x30_.15.0">
      <rect x="27.949" y="17.146" width="2.101" id="_x30_.15.0.0" fill="#333333" height="3.733"/>
    </g>
    <g id="_x30_.15.1">
      <rect x="18.702" y="21.128" width="2.101" id="_x30_.15.1.0" fill="#333333" height="6.221"/>
    </g>
    <g id="_x30_.15.2">
      <rect x="31.925" y="17.146" width="2.101" id="_x30_.15.2.0" fill="#333333" height="3.733"/>
    </g>
    <g id="_x30_.15.3">
      <rect x="35.901" y="17.146" width="2.101" id="_x30_.15.3.0" fill="#333333" height="4.703"/>
    </g>
    <g id="_x30_.15.4">
      <rect x="39.877" y="17.146" width="2.101" id="_x30_.15.4.0" fill="#333333" height="3.733"/>
    </g>
    <g id="_x30_.15.5">
      <rect x="43.853" y="17.146" width="2.101" id="_x30_.15.5.0" fill="#333333" height="3.733"/>
    </g>
  </g>
  <rect x="88.887" y="8.368" width="5.704" id="_x30_.16" fill="#333333" height="2.101"/>
  <rect x="82.203" y="8.368" width="5.704" id="_x30_.17" fill="#333333" height="2.101"/>
  <rect x="18.702" y="16.141" width="4.093" id="_x30_.18" fill="#333333" height="2.104"/>
  <rect x="64.033" y="39.059" width="5.663" id="_x30_.19" fill="#333333" height="5.667" transform="matrix(1.000001, 0, 0, 1, -5.183259, -3.620319)"/>
  <rect x="22.139" y="21.198" width="4.093" id="_x30_.20" fill="#333333" height="2.101"/>
  <rect x="22.139" y="24.339" width="4.093" id="_x30_.21" fill="#333333" height="2.101"/>
  <rect x="5.742" y="38.672" width="4.093" id="_x30_.22" fill="#333333" height="2.102"/>
  <rect x="41.853" y="30.007" width="4.093" id="_x30_.23" fill="#333333" height="2.102" transform="matrix(1.000001, 0, 0, 1, 13.084483, -16.630796)"/>
  <g id="_x30_.24" transform="matrix(1, 0, 0, 1, 34.36216, -0.611426)">
    <polygon points="88.785,23.096,88.932,23.096,88.932,27.503,88.785,27.503,88.785,30.833,95.088,30.833,95.088,19.766,88.785,19.766" id="_x30_.24.0" fill="#CCCCCC"/>
    <polygon points="96.098,27.503,95.953,27.503,95.953,23.096,96.098,23.096,96.098,19.766,89.842,19.766,89.842,30.833,96.098,30.833" id="_x30_.24.1" fill="#CCCCCC"/>
    <circle cx="92.441" cy="25.3" id="_x30_.24.2" r="2.316"/>
    <path d="M92.553,27.617c1.281,0,2.318,-1.038,2.318,-2.316c0,-1.279,-1.037,-2.316,-2.318,-2.316l-0.111,0c1.281,0,2.316,1.036,2.316,2.316c0,1.278,-1.035,2.316,-2.316,2.316L92.553,27.617z" enable-background="new    " opacity="0.2" id="_x30_.24.3"/>
    <circle cx="92.441" cy="25.3" id="_x30_.24.4" fill="#1A1A1A" r="2.232"/>
    <circle cx="92.389" cy="25.3" id="_x30_.24.5" fill="#333333" r="2.232"/>
    <path d="M92.494,27.532c1.232,0,2.232,-0.999,2.232,-2.231c0,-1.233,-1,-2.233,-2.232,-2.233l-0.105,0c1.232,0,2.232,1.001,2.232,2.233s-1,2.231,-2.232,2.231L92.494,27.532z" enable-background="new    " opacity="0.2" id="_x30_.24.6"/>
    <path d="M92.494,23.067c-1.232,0,-2.232,1.001,-2.232,2.233s1,2.231,2.232,2.231l-0.105,0c-1.23,0,-2.229,-0.999,-2.229,-2.231c0,-1.233,0.999,-2.233,2.229,-2.233L92.494,23.067z" enable-background="new    " opacity="0.2" id="_x30_.24.7" fill="#FFFFFF"/>
    <rect x="88.785" enable-background="new    " y="19.765" opacity="0.2" width="0.146" id="_x30_.24.8" fill="#FFFFFF" height="3.331"/>
    <rect x="88.785" enable-background="new    " y="27.503" opacity="0.2" width="0.146" id="_x30_.24.9" fill="#FFFFFF" height="3.33"/>
    <rect x="88.932" enable-background="new    " y="23.096" opacity="0.2" width="0.146" id="_x30_.24.10" fill="#FFFFFF" height="4.407"/>
    <rect x="95.945" enable-background="new    " y="19.765" opacity="0.2" width="0.146" id="_x30_.24.11" height="3.331"/>
    <rect x="95.945" enable-background="new    " y="27.503" opacity="0.2" width="0.146" id="_x30_.24.12" height="3.33"/>
    <rect x="95.799" enable-background="new    " y="23.096" opacity="0.2" width="0.146" id="_x30_.24.13" height="4.407"/>
  </g>
  <circle cx="99.941" cy="3.723" stroke-width="1.224" stroke="#9A916C" id="connector19pin" fill="none" r="1.908"/>
  <circle cx="92.742" cy="3.723" stroke-width="1.224" stroke="#9A916C" id="connector20pin" fill="none" r="1.908"/>
  <circle cx="85.542" cy="3.723" stroke-width="1.224" stroke="#9A916C" id="connector21pin" fill="none" r="1.908"/>
  <circle cx="78.342" cy="3.723" stroke-width="1.224" stroke="#9A916C" id="connector22pin" fill="none" r="1.908"/>
  <circle cx="71.143" cy="3.723" stroke-width="1.224" stroke="#9A916C" id="connector23pin" fill="none" r="1.908"/>
  <circle cx="63.941" cy="3.723" stroke-width="1.224" stroke="#9A916C" id="connector24pin" fill="none" r="1.908"/>
  <circle cx="56.743" cy="3.723" stroke-width="1.224" stroke="#9A916C" id="connector25pin" fill="none" r="1.908"/>
  <circle cx="49.542" cy="3.723" stroke-width="1.224" stroke="#9A916C" id="connector26pin" fill="none" r="1.908"/>
  <circle cx="42.342" cy="3.723" stroke-width="1.224" stroke="#9A916C" id="connector27pin" fill="none" r="1.908"/>
  <circle cx="35.143" cy="3.723" stroke-width="1.224" stroke="#9A916C" id="connector28pin" fill="none" r="1.908"/>
  <circle cx="27.942" cy="3.723" stroke-width="1.224" stroke="#9A916C" id="connector29pin" fill="none" r="1.908"/>
  <circle cx="20.742" cy="3.723" stroke-width="1.224" stroke="#9A916C" id="connector30pin" fill="none" r="1.908"/>
  <circle cx="13.542" cy="3.723" stroke-width="1.224" stroke="#9A916C" id="connector31pin" fill="none" r="1.908"/>
  <circle cx="6.342" cy="3.723" stroke-width="1.224" stroke="#9A916C" id="connector32pin" fill="none" r="1.908"/>
  <circle cx="99.941" cy="46.922" stroke-width="1.224" stroke="#9A916C" id="connector13pin" fill="none" r="1.908"/>
  <circle cx="92.742" cy="46.922" stroke-width="1.224" stroke="#9A916C" id="connector12pin" fill="none" r="1.908"/>
  <circle cx="85.542" cy="46.922" stroke-width="1.224" stroke="#9A916C" id="connector11pin" fill="none" r="1.908"/>
  <circle cx="78.342" cy="46.922" stroke-width="1.224" stroke="#9A916C" id="connector10pin" fill="none" r="1.908"/>
  <circle cx="71.143" cy="46.922" stroke-width="1.224" stroke="#9A916C" id="connector9pin" fill="none" r="1.908"/>
  <circle cx="63.941" cy="46.922" stroke-width="1.224" stroke="#9A916C" id="connector8pin" fill="none" r="1.908"/>
  <circle cx="56.743" cy="46.922" stroke-width="1.224" stroke="#9A916C" id="connector7pin" fill="none" r="1.908"/>
  <circle cx="49.542" cy="46.922" stroke-width="1.224" stroke="#9A916C" id="connector6pin" fill="none" r="1.908"/>
  <circle cx="42.342" cy="46.922" stroke-width="1.224" stroke="#9A916C" id="connector5pin" fill="none" r="1.908"/>
  <circle cx="35.143" cy="46.922" stroke-width="1.224" stroke="#9A916C" id="connector4pin" fill="none" r="1.908"/>
  <circle cx="27.942" cy="46.922" stroke-width="1.224" stroke="#9A916C" id="connector3pin" fill="none" r="1.908"/>
  <circle cx="20.742" cy="46.922" stroke-width="1.224" stroke="#9A916C" id="connector2pin" fill="none" r="1.908"/>
  <circle cx="13.542" cy="46.922" stroke-width="1.224" stroke="#9A916C" id="connector1pin" fill="none" r="1.908"/>
  <circle cx="6.342" cy="46.922" stroke-width="1.224" stroke="#9A916C" id="connector0pin" fill="none" r="1.908"/>
  <circle cx="99.943" cy="32.523" stroke-width="1.224" stroke="#9A916C" id="connector15pin" fill="none" r="1.908" transform="matrix(0.999996, 0, 0, 1, 36.000392, 0)"/>
  <circle cx="99.941" cy="39.723" stroke-width="1.224" stroke="#9A916C" id="connector14pin" fill="none" r="1.908" transform="matrix(1.000004, 0, 0, 1, 35.999593, 0)"/>
  <circle cx="99.943" cy="25.323" stroke-width="1.224" stroke="#9A916C" id="connector16pin" fill="none" r="1.908" transform="matrix(0.999996, 0, 0, 1, 36.000392, 0)"/>
  <circle cx="99.941" cy="10.923" stroke-width="1.224" stroke="#9A916C" id="connector18pin" fill="none" r="1.908" transform="matrix(1.000004, 0, 0, 1, 35.999593, 0)"/>
  <circle cx="99.943" cy="18.122" stroke-width="1.224" stroke="#9A916C" id="connector17pin" fill="none" r="1.908" transform="matrix(0.999996, 0, 0, 1, 36.000392, 0)"/>
  <circle cx="1.762" cy="44.854" stroke-width="1.224" stroke="#9A916C" id="circle-11" fill="none" r="1.908" transform="matrix(0.999998, 0, 0, 1, 134.13858, 2.064152)"/>
  <circle cx="1.762" cy="44.854" stroke-width="1.224" stroke="#9A916C" id="circle-22" fill="none" r="1.908" transform="matrix(0.999998, 0, 0, 1, 134.135986, -41.125851)"/>
  <g transform="matrix(1, 0, 0, 1, 68.680626, 47.710354)">
    <g>
      <g>
        <g>
          <g>
            <g id="g156">
              <g id="g158">
                <g id="_x30_.25_1_">
                  <g id="_x30_.25">
                    <g id="_x30_.25.0">
                      <g transform="matrix(1, 0, 0, 1, 0, -6.2002)">
                        <text font-size="3.8634" font-family="'OCRA'" id="_x30_.25.0.0" fill="#C8C8C8" style="white-space: pre;">teensy3.6</text>
                      </g>
                    </g>
                  </g>
                </g>
              </g>
            </g>
          </g>
        </g>
      </g>
    </g>
  </g>
  <circle cx="78.342" cy="46.922" stroke-width="1.224" stroke="#9A916C" id="circle-1" fill="none" r="1.908" transform="matrix(0.999996, 0, 0, 1, 93.558632, -0.004)"/>
  <circle cx="71.143" cy="46.922" stroke-width="1.224" stroke="#9A916C" id="circle-2" fill="none" r="1.908" transform="matrix(0.999996, 0, 0, 1, 93.558601, -0.004)"/>
  <circle cx="59.361" cy="44.854" stroke-width="1.224" stroke="#9A916C" id="circle-3" fill="none" r="1.908" transform="matrix(1.000002, 0, 0, 1, 98.138469, 2.064152)"/>
  <circle cx="52.163" cy="44.854" stroke-width="1.224" stroke="#9A916C" id="circle-4" fill="none" r="1.908" transform="matrix(1.000002, 0, 0, 1, 98.138487, 2.064152)"/>
  <circle cx="44.962" cy="44.854" stroke-width="1.224" stroke="#9A916C" id="circle-5" fill="none" r="1.908" transform="matrix(1.000002, 0, 0, 1, 98.138494, 2.064152)"/>
  <circle cx="37.762" cy="44.854" stroke-width="1.224" stroke="#9A916C" id="circle-6" fill="none" r="1.908" transform="matrix(1.000002, 0, 0, 1, 98.138512, 2.064152)"/>
  <circle cx="30.563" cy="44.854" stroke-width="1.224" stroke="#9A916C" id="circle-7" fill="none" r="1.908" transform="matrix(1.000002, 0, 0, 1, 98.138523, 2.064152)"/>
  <circle cx="23.362" cy="44.854" stroke-width="1.224" stroke="#9A916C" id="circle-8" fill="none" r="1.908" transform="matrix(0.999998, 0, 0, 1, 98.138635, 2.064152)"/>
  <circle cx="16.162" cy="44.854" stroke-width="1.224" stroke="#9A916C" id="circle-9" fill="none" r="1.908" transform="matrix(0.999999, 0, 0, 1, 98.138606, 2.064152)"/>
  <circle cx="8.962" cy="44.854" stroke-width="1.224" stroke="#9A916C" id="circle-10" fill="none" r="1.908" transform="matrix(1.000002, 0, 0, 1, 98.138564, 2.064152)"/>
  <circle cx="78.342" cy="46.922" stroke-width="1.224" stroke="#9A916C" id="circle-12" fill="none" r="1.908" transform="matrix(0.999996, 0, 0, 1, 93.556046, -43.194)"/>
  <circle cx="71.143" cy="46.922" stroke-width="1.224" stroke="#9A916C" id="circle-13" fill="none" r="1.908" transform="matrix(0.999996, 0, 0, 1, 93.556015, -43.194)"/>
  <circle cx="59.361" cy="44.854" stroke-width="1.224" stroke="#9A916C" id="circle-14" fill="none" r="1.908" transform="matrix(0.999994, 0, 0, 1, 98.136365, -41.125851)"/>
  <circle cx="52.163" cy="44.854" stroke-width="1.224" stroke="#9A916C" id="circle-15" fill="none" r="1.908" transform="matrix(1.000002, 0, 0, 1, 98.135893, -41.125851)"/>
  <circle cx="44.962" cy="44.854" stroke-width="1.224" stroke="#9A916C" id="circle-16" fill="none" r="1.908" transform="matrix(1.000002, 0, 0, 1, 98.135916, -41.125851)"/>
  <circle cx="37.762" cy="44.854" stroke-width="1.224" stroke="#9A916C" id="circle-17" fill="none" r="1.908" transform="matrix(0.999994, 0, 0, 1, 98.136238, -41.125851)"/>
  <circle cx="30.563" cy="44.854" stroke-width="1.224" stroke="#9A916C" id="circle-18" fill="none" r="1.908" transform="matrix(0.999994, 0, 0, 1, 98.136189, -41.125851)"/>
  <circle cx="23.362" cy="44.854" stroke-width="1.224" stroke="#9A916C" id="circle-19" fill="none" r="1.908" transform="matrix(1.000002, 0, 0, 1, 98.135955, -41.125851)"/>
  <circle cx="16.162" cy="44.854" stroke-width="1.224" stroke="#9A916C" id="circle-20" fill="none" r="1.908" transform="matrix(0.999999, 0, 0, 1, 98.13602, -41.125851)"/>
  <circle cx="8.962" cy="44.854" stroke-width="1.224" stroke="#9A916C" id="circle-21" fill="none" r="1.908" transform="matrix(1.000002, 0, 0, 1, 98.135977, -41.125851)"/>
  <rect x="142.136" y="9.191" width="32.772" height="33.262" style="fill: rgb(91, 91, 91);"/>
  <rect x="105.695" y="31.69" width="10.15" height="10.151" style="fill: rgb(91, 91, 91);"/>
  <rect x="94.883" y="36.827" width="9.661" height="4.648" style="fill: rgb(91, 91, 91);" transform="matrix(1.000001, 0, 0, 1, 26.464685, 0)"/>
  <circle cx="53.259" cy="38.816" stroke-width="1.224" stroke="#9A916C" id="circle-23" fill="none" r="1.908"/>
  <circle cx="46.06" cy="38.816" stroke-width="1.224" stroke="#9A916C" id="circle-24" fill="none" r="1.908"/>
  <circle cx="27.942" cy="46.922" stroke-width="1.224" stroke="#9A916C" id="circle-25" fill="none" r="1.908" transform="matrix(1.000001, 0, 0, 1, 10.916216, -8.105871)"/>
  <circle cx="26.218" cy="23.66" stroke-width="1.224" stroke="#9A916C" id="circle-26" fill="none" r="1.908" transform="matrix(0.999999, 0, 0, 1, 5.440565, 15.155785)"/>
  <circle cx="24.459" cy="38.816" stroke-width="1.224" stroke="#9A916C" id="circle-27" fill="none" r="1.908"/>
  <rect x="21.007" y="35.29" width="35.817" height="6.919" style="fill: none; stroke: rgb(255, 255, 255);"/>
  <rect x="27.62" y="35.405" width="0.879" height="6.995" style="fill: rgb(255, 255, 255);"/>
</svg>
